<mxfile host="65bd71144e" pages="1">
    <diagram id="B5ZyRWWeNDYVwnpTZKAO" name="Cow-person Agile">
        <mxGraphModel grid="0" gridSize="10" guides="1" tooltips="1" connect="1" arrows="1" page="0" fold="1" pageScale="1" pageWidth="850" pageHeight="1100" math="0" shadow="0">
            <root>
                <mxCell id="zyvHbTYCoBxjpQ5ART5n-0"/>
                <mxCell id="zyvHbTYCoBxjpQ5ART5n-1" parent="zyvHbTYCoBxjpQ5ART5n-0"/>
                <mxCell id="wG_r2eM2UJDKpy1E1yiJ-1" value="Edit files on share =&amp;gt; Hard refresh" style="edgeStyle=none;html=1;exitX=0.92;exitY=0.5;exitDx=0;exitDy=0;exitPerimeter=0;entryX=0;entryY=0.5;entryDx=0;entryDy=0;" parent="zyvHbTYCoBxjpQ5ART5n-1" source="WGYDGjJbfiwWoTnCztdg-0" target="wG_r2eM2UJDKpy1E1yiJ-0" edge="1">
                    <mxGeometry relative="1" as="geometry"/>
                </mxCell>
                <mxCell id="WGYDGjJbfiwWoTnCztdg-0" value="Josh and Chad (green devs)&lt;br&gt;" style="pointerEvents=1;shadow=0;dashed=0;html=1;strokeColor=none;labelPosition=center;verticalLabelPosition=bottom;verticalAlign=top;align=center;shape=mxgraph.azure.laptop;fillColor=#7D7D7D;" parent="zyvHbTYCoBxjpQ5ART5n-1" vertex="1">
                    <mxGeometry x="260" y="-3121" width="50" height="30" as="geometry"/>
                </mxCell>
                <mxCell id="TtR0A0QfE-jftpH6RMZg-1" style="edgeStyle=none;html=1;exitX=1;exitY=0.25;exitDx=0;exitDy=0;" parent="zyvHbTYCoBxjpQ5ART5n-1" source="wG_r2eM2UJDKpy1E1yiJ-0" edge="1">
                    <mxGeometry relative="1" as="geometry">
                        <mxPoint x="560" y="-3117" as="targetPoint"/>
                    </mxGeometry>
                </mxCell>
                <mxCell id="wG_r2eM2UJDKpy1E1yiJ-0" value="Production Server&lt;br&gt;" style="aspect=fixed;perimeter=ellipsePerimeter;html=1;align=center;shadow=0;dashed=0;spacingTop=3;image;image=img/lib/active_directory/generic_server.svg;" parent="zyvHbTYCoBxjpQ5ART5n-1" vertex="1">
                    <mxGeometry x="565.25" y="-3131" width="28.000000000000004" height="50" as="geometry"/>
                </mxCell>
                <mxCell id="TtR0A0QfE-jftpH6RMZg-0" value="&lt;span style=&quot;font-size: 36px&quot;&gt;&quot;Agile&quot; =&amp;gt; but CD!&lt;/span&gt;" style="text;html=1;strokeColor=none;fillColor=none;align=center;verticalAlign=middle;whiteSpace=wrap;rounded=0;dashed=1;" parent="zyvHbTYCoBxjpQ5ART5n-1" vertex="1">
                    <mxGeometry y="-3200" width="840" height="29" as="geometry"/>
                </mxCell>
                <mxCell id="0" value="&lt;div style=&quot;color: rgb(212 , 212 , 212) ; background-color: rgb(30 , 30 , 30) ; font-family: &amp;#34;consolas&amp;#34; , &amp;#34;courier new&amp;#34; , monospace ; font-size: 14px ; line-height: 19px&quot;&gt;System investigation&lt;/div&gt;" style="strokeWidth=1;shadow=0;dashed=0;align=center;html=1;shape=mxgraph.mockup.forms.rrect;rSize=0;fillColor=#eeeeee;strokeColor=#999999;gradientColor=#cccccc;align=left;spacingLeft=4;fontSize=17;fontColor=#666666;labelPosition=right;comic=0;" vertex="1" parent="zyvHbTYCoBxjpQ5ART5n-1">
                    <mxGeometry x="40" y="-3040" width="15" height="15" as="geometry"/>
                </mxCell>
                <mxCell id="1" value="&lt;div style=&quot;color: rgb(212 , 212 , 212) ; background-color: rgb(30 , 30 , 30) ; font-family: &amp;#34;consolas&amp;#34; , &amp;#34;courier new&amp;#34; , monospace ; font-size: 14px ; line-height: 19px&quot;&gt;Analysis&lt;/div&gt;" style="strokeWidth=1;shadow=0;dashed=0;align=center;html=1;shape=mxgraph.mockup.forms.rrect;rSize=0;fillColor=#eeeeee;strokeColor=#999999;gradientColor=#cccccc;align=left;spacingLeft=4;fontSize=17;fontColor=#666666;labelPosition=right;" vertex="1" parent="zyvHbTYCoBxjpQ5ART5n-1">
                    <mxGeometry x="40" y="-3010" width="15" height="15" as="geometry"/>
                </mxCell>
                <mxCell id="2" value="&lt;div style=&quot;color: rgb(212 , 212 , 212) ; background-color: rgb(30 , 30 , 30) ; font-family: &amp;#34;consolas&amp;#34; , &amp;#34;courier new&amp;#34; , monospace ; font-size: 14px ; line-height: 19px&quot;&gt;Design&lt;/div&gt;" style="strokeWidth=1;shadow=0;dashed=0;align=center;html=1;shape=mxgraph.mockup.forms.rrect;rSize=0;fillColor=#eeeeee;strokeColor=#999999;gradientColor=#cccccc;align=left;spacingLeft=4;fontSize=17;fontColor=#666666;labelPosition=right;" vertex="1" parent="zyvHbTYCoBxjpQ5ART5n-1">
                    <mxGeometry x="40" y="-2980" width="15" height="15" as="geometry"/>
                </mxCell>
                <mxCell id="3" value="&lt;div style=&quot;color: rgb(212 , 212 , 212) ; background-color: rgb(30 , 30 , 30) ; font-family: &amp;#34;consolas&amp;#34; , &amp;#34;courier new&amp;#34; , monospace ; font-size: 14px ; line-height: 19px&quot;&gt;Development&lt;/div&gt;" style="strokeWidth=1;shadow=0;dashed=0;align=center;html=1;shape=mxgraph.mockup.forms.rrect;rSize=0;fillColor=#eeeeee;strokeColor=#999999;gradientColor=#cccccc;align=left;spacingLeft=4;fontSize=17;fontColor=#666666;labelPosition=right;" vertex="1" parent="zyvHbTYCoBxjpQ5ART5n-1">
                    <mxGeometry x="40" y="-2950" width="15" height="15" as="geometry"/>
                </mxCell>
                <mxCell id="4" value="&lt;div style=&quot;color: rgb(212 , 212 , 212) ; background-color: rgb(30 , 30 , 30) ; font-family: &amp;#34;consolas&amp;#34; , &amp;#34;courier new&amp;#34; , monospace ; font-size: 14px ; line-height: 19px&quot;&gt;Testing&lt;/div&gt;" style="strokeWidth=1;shadow=0;dashed=0;align=center;html=1;shape=mxgraph.mockup.forms.rrect;rSize=0;fillColor=#eeeeee;strokeColor=#999999;gradientColor=#cccccc;align=left;spacingLeft=4;fontSize=17;fontColor=#666666;labelPosition=right;" vertex="1" parent="zyvHbTYCoBxjpQ5ART5n-1">
                    <mxGeometry x="40" y="-2920" width="15" height="15" as="geometry"/>
                </mxCell>
                <mxCell id="5" value="&lt;div style=&quot;color: rgb(212 , 212 , 212) ; background-color: rgb(30 , 30 , 30) ; font-family: &amp;#34;consolas&amp;#34; , &amp;#34;courier new&amp;#34; , monospace ; font-size: 14px ; line-height: 19px&quot;&gt;Training and transition&lt;/div&gt;" style="strokeWidth=1;shadow=0;dashed=0;align=center;html=1;shape=mxgraph.mockup.forms.rrect;rSize=0;fillColor=#eeeeee;strokeColor=#999999;gradientColor=#cccccc;align=left;spacingLeft=4;fontSize=17;fontColor=#666666;labelPosition=right;" vertex="1" parent="zyvHbTYCoBxjpQ5ART5n-1">
                    <mxGeometry x="40" y="-2890" width="15" height="15" as="geometry"/>
                </mxCell>
                <mxCell id="8" value="&lt;div style=&quot;color: rgb(212 , 212 , 212) ; background-color: rgb(30 , 30 , 30) ; font-family: &amp;#34;consolas&amp;#34; , &amp;#34;courier new&amp;#34; , monospace ; font-size: 14px ; line-height: 19px&quot;&gt;&lt;div style=&quot;font-family: &amp;#34;consolas&amp;#34; , &amp;#34;courier new&amp;#34; , monospace ; line-height: 19px&quot;&gt;Operations and maintenance&lt;/div&gt;&lt;/div&gt;" style="strokeWidth=1;shadow=0;dashed=0;align=center;html=1;shape=mxgraph.mockup.forms.rrect;rSize=0;fillColor=#eeeeee;strokeColor=#999999;gradientColor=#cccccc;align=left;spacingLeft=4;fontSize=17;fontColor=#666666;labelPosition=right;" vertex="1" parent="zyvHbTYCoBxjpQ5ART5n-1">
                    <mxGeometry x="40" y="-2860" width="15" height="15" as="geometry"/>
                </mxCell>
            </root>
        </mxGraphModel>
    </diagram>
    <diagram id="NHrxNwzHcHytye7DgV9m" name="Source Control, oh my!">
        <mxGraphModel grid="0" gridSize="10" guides="1" tooltips="1" connect="1" arrows="1" page="0" fold="1" pageScale="1" pageWidth="850" pageHeight="1100" math="0" shadow="0">
            <root>
                <mxCell id="j6Jv_49wpIOIfNEbEc9r-0"/>
                <mxCell id="j6Jv_49wpIOIfNEbEc9r-1" parent="j6Jv_49wpIOIfNEbEc9r-0"/>
                <mxCell id="GywOL50bJM6NKSg1fu9D-0" value="" style="edgeStyle=none;html=1;exitX=0.92;exitY=0.5;exitDx=0;exitDy=0;exitPerimeter=0;entryX=0;entryY=0.5;entryDx=0;entryDy=0;entryPerimeter=0;" parent="j6Jv_49wpIOIfNEbEc9r-1" target="akxm5zvCVU3FPQ4tk4X9-0" edge="1">
                    <mxGeometry relative="1" as="geometry">
                        <mxPoint x="236" y="-3093" as="sourcePoint"/>
                        <mxPoint x="410" y="-3096.4285714285716" as="targetPoint"/>
                    </mxGeometry>
                </mxCell>
                <mxCell id="GywOL50bJM6NKSg1fu9D-1" value="Developers" style="pointerEvents=1;shadow=0;dashed=0;html=1;strokeColor=none;labelPosition=center;verticalLabelPosition=bottom;verticalAlign=top;align=center;shape=mxgraph.azure.laptop;fillColor=#7D7D7D;" parent="j6Jv_49wpIOIfNEbEc9r-1" vertex="1">
                    <mxGeometry x="190" y="-3109" width="50" height="30" as="geometry"/>
                </mxCell>
                <mxCell id="GywOL50bJM6NKSg1fu9D-3" value="Production Server&lt;br&gt;" style="aspect=fixed;perimeter=ellipsePerimeter;html=1;align=center;shadow=0;dashed=0;spacingTop=3;image;image=img/lib/active_directory/generic_server.svg;" parent="j6Jv_49wpIOIfNEbEc9r-1" vertex="1">
                    <mxGeometry x="639" y="-3119" width="28.000000000000004" height="50" as="geometry"/>
                </mxCell>
                <mxCell id="6JeHLBvKIeFmnguN1zcx-0" value="&lt;span style=&quot;font-size: 36px&quot;&gt;Visual SourceSafe, oh my!&lt;/span&gt;" style="text;html=1;strokeColor=none;fillColor=none;align=center;verticalAlign=middle;whiteSpace=wrap;rounded=0;dashed=1;" parent="j6Jv_49wpIOIfNEbEc9r-1" vertex="1">
                    <mxGeometry y="-3199" width="840" height="29" as="geometry"/>
                </mxCell>
                <mxCell id="akxm5zvCVU3FPQ4tk4X9-1" style="edgeStyle=none;html=1;entryX=0;entryY=0.5;entryDx=0;entryDy=0;" parent="j6Jv_49wpIOIfNEbEc9r-1" source="akxm5zvCVU3FPQ4tk4X9-0" target="GywOL50bJM6NKSg1fu9D-3" edge="1">
                    <mxGeometry relative="1" as="geometry"/>
                </mxCell>
                <mxCell id="akxm5zvCVU3FPQ4tk4X9-0" value="SourceSafe" style="sketch=0;points=[[0,0,0],[0.25,0,0],[0.5,0,0],[0.75,0,0],[1,0,0],[0,1,0],[0.25,1,0],[0.5,1,0],[0.75,1,0],[1,1,0],[0,0.25,0],[0,0.5,0],[0,0.75,0],[1,0.25,0],[1,0.5,0],[1,0.75,0]];outlineConnect=0;fontColor=#FFFFFF;gradientColor=#4D72F3;gradientDirection=north;fillColor=#3334B9;strokeColor=#ffffff;dashed=0;verticalLabelPosition=bottom;verticalAlign=top;align=center;html=1;fontSize=12;fontStyle=0;aspect=fixed;shape=mxgraph.aws4.resourceIcon;resIcon=mxgraph.aws4.codecommit;" parent="j6Jv_49wpIOIfNEbEc9r-1" vertex="1">
                    <mxGeometry x="410" y="-3119" width="54" height="54" as="geometry"/>
                </mxCell>
                <mxCell id="ST4GqEYm9giA8aL2jmhz-0" value="&lt;div style=&quot;color: rgb(212 , 212 , 212) ; background-color: rgb(30 , 30 , 30) ; font-family: &amp;#34;consolas&amp;#34; , &amp;#34;courier new&amp;#34; , monospace ; font-size: 14px ; line-height: 19px&quot;&gt;System investigation&lt;/div&gt;" style="strokeWidth=1;shadow=0;dashed=0;align=center;html=1;shape=mxgraph.mockup.forms.rrect;rSize=0;fillColor=#eeeeee;strokeColor=#999999;gradientColor=#cccccc;align=left;spacingLeft=4;fontSize=17;fontColor=#666666;labelPosition=right;" vertex="1" parent="j6Jv_49wpIOIfNEbEc9r-1">
                    <mxGeometry x="40" y="-3040" width="15" height="15" as="geometry"/>
                </mxCell>
                <mxCell id="ST4GqEYm9giA8aL2jmhz-1" value="&lt;div style=&quot;color: rgb(212 , 212 , 212) ; background-color: rgb(30 , 30 , 30) ; font-family: &amp;#34;consolas&amp;#34; , &amp;#34;courier new&amp;#34; , monospace ; font-size: 14px ; line-height: 19px&quot;&gt;Analysis&lt;/div&gt;" style="strokeWidth=1;shadow=0;dashed=0;align=center;html=1;shape=mxgraph.mockup.forms.rrect;rSize=0;fillColor=#eeeeee;strokeColor=#999999;gradientColor=#cccccc;align=left;spacingLeft=4;fontSize=17;fontColor=#666666;labelPosition=right;" vertex="1" parent="j6Jv_49wpIOIfNEbEc9r-1">
                    <mxGeometry x="40" y="-3010" width="15" height="15" as="geometry"/>
                </mxCell>
                <mxCell id="ST4GqEYm9giA8aL2jmhz-2" value="&lt;div style=&quot;color: rgb(212 , 212 , 212) ; background-color: rgb(30 , 30 , 30) ; font-family: &amp;#34;consolas&amp;#34; , &amp;#34;courier new&amp;#34; , monospace ; font-size: 14px ; line-height: 19px&quot;&gt;Design&lt;/div&gt;" style="strokeWidth=1;shadow=0;dashed=0;align=center;html=1;shape=mxgraph.mockup.forms.rrect;rSize=0;fillColor=#eeeeee;strokeColor=#999999;gradientColor=#cccccc;align=left;spacingLeft=4;fontSize=17;fontColor=#666666;labelPosition=right;" vertex="1" parent="j6Jv_49wpIOIfNEbEc9r-1">
                    <mxGeometry x="40" y="-2980" width="15" height="15" as="geometry"/>
                </mxCell>
                <mxCell id="ST4GqEYm9giA8aL2jmhz-3" value="&lt;div style=&quot;color: rgb(212 , 212 , 212) ; background-color: rgb(30 , 30 , 30) ; font-family: &amp;#34;consolas&amp;#34; , &amp;#34;courier new&amp;#34; , monospace ; font-size: 14px ; line-height: 19px&quot;&gt;Development&lt;/div&gt;" style="strokeWidth=1;shadow=0;dashed=0;align=center;html=1;shape=mxgraph.mockup.forms.rrect;rSize=0;fillColor=#eeeeee;strokeColor=#999999;gradientColor=#cccccc;align=left;spacingLeft=4;fontSize=17;fontColor=#666666;labelPosition=right;" vertex="1" parent="j6Jv_49wpIOIfNEbEc9r-1">
                    <mxGeometry x="40" y="-2950" width="15" height="15" as="geometry"/>
                </mxCell>
                <mxCell id="ST4GqEYm9giA8aL2jmhz-4" value="&lt;div style=&quot;color: rgb(212 , 212 , 212) ; background-color: rgb(30 , 30 , 30) ; font-family: &amp;#34;consolas&amp;#34; , &amp;#34;courier new&amp;#34; , monospace ; font-size: 14px ; line-height: 19px&quot;&gt;Testing&lt;/div&gt;" style="strokeWidth=1;shadow=0;dashed=0;align=center;html=1;shape=mxgraph.mockup.forms.rrect;rSize=0;fillColor=#eeeeee;strokeColor=#999999;gradientColor=#cccccc;align=left;spacingLeft=4;fontSize=17;fontColor=#666666;labelPosition=right;" vertex="1" parent="j6Jv_49wpIOIfNEbEc9r-1">
                    <mxGeometry x="40" y="-2920" width="15" height="15" as="geometry"/>
                </mxCell>
                <mxCell id="ST4GqEYm9giA8aL2jmhz-5" value="&lt;div style=&quot;color: rgb(212 , 212 , 212) ; background-color: rgb(30 , 30 , 30) ; font-family: &amp;#34;consolas&amp;#34; , &amp;#34;courier new&amp;#34; , monospace ; font-size: 14px ; line-height: 19px&quot;&gt;Training and transition&lt;/div&gt;" style="strokeWidth=1;shadow=0;dashed=0;align=center;html=1;shape=mxgraph.mockup.forms.rrect;rSize=0;fillColor=#eeeeee;strokeColor=#999999;gradientColor=#cccccc;align=left;spacingLeft=4;fontSize=17;fontColor=#666666;labelPosition=right;" vertex="1" parent="j6Jv_49wpIOIfNEbEc9r-1">
                    <mxGeometry x="40" y="-2890" width="15" height="15" as="geometry"/>
                </mxCell>
                <mxCell id="ST4GqEYm9giA8aL2jmhz-6" value="&lt;div style=&quot;color: rgb(212 , 212 , 212) ; background-color: rgb(30 , 30 , 30) ; font-family: &amp;#34;consolas&amp;#34; , &amp;#34;courier new&amp;#34; , monospace ; font-size: 14px ; line-height: 19px&quot;&gt;&lt;div style=&quot;font-family: &amp;#34;consolas&amp;#34; , &amp;#34;courier new&amp;#34; , monospace ; line-height: 19px&quot;&gt;Operations and maintenance&lt;/div&gt;&lt;/div&gt;" style="strokeWidth=1;shadow=0;dashed=0;align=center;html=1;shape=mxgraph.mockup.forms.rrect;rSize=0;fillColor=#eeeeee;strokeColor=#999999;gradientColor=#cccccc;align=left;spacingLeft=4;fontSize=17;fontColor=#666666;labelPosition=right;" vertex="1" parent="j6Jv_49wpIOIfNEbEc9r-1">
                    <mxGeometry x="40" y="-2860" width="15" height="15" as="geometry"/>
                </mxCell>
            </root>
        </mxGraphModel>
    </diagram>
    <diagram id="b1KXGtRv-vXALtMS9Yl2" name="Merge Hell">
        <mxGraphModel grid="0" gridSize="10" guides="1" tooltips="1" connect="1" arrows="1" page="0" fold="1" pageScale="1" pageWidth="850" pageHeight="1100" math="0" shadow="0">
            <root>
                <mxCell id="68cRftaq75gitALyQ55k-0"/>
                <mxCell id="68cRftaq75gitALyQ55k-1" parent="68cRftaq75gitALyQ55k-0"/>
                <mxCell id="XnNgxQ9sJiaZyh9KvzZ--0" value="" style="edgeStyle=none;html=1;exitX=0.92;exitY=0.5;exitDx=0;exitDy=0;exitPerimeter=0;entryX=0;entryY=0.5;entryDx=0;entryDy=0;entryPerimeter=0;" parent="68cRftaq75gitALyQ55k-1" source="XnNgxQ9sJiaZyh9KvzZ--1" target="XnNgxQ9sJiaZyh9KvzZ--4" edge="1">
                    <mxGeometry relative="1" as="geometry">
                        <mxPoint x="106" y="-3044" as="sourcePoint"/>
                        <mxPoint x="280" y="-3047.4285714285716" as="targetPoint"/>
                    </mxGeometry>
                </mxCell>
                <mxCell id="XnNgxQ9sJiaZyh9KvzZ--1" value="Developers" style="pointerEvents=1;shadow=0;dashed=0;html=1;strokeColor=none;labelPosition=center;verticalLabelPosition=bottom;verticalAlign=top;align=center;shape=mxgraph.azure.laptop;fillColor=#7D7D7D;" parent="68cRftaq75gitALyQ55k-1" vertex="1">
                    <mxGeometry x="91" y="-3060" width="50" height="30" as="geometry"/>
                </mxCell>
                <mxCell id="XnNgxQ9sJiaZyh9KvzZ--5" value="Team A &lt;br&gt;Dev Branch" style="points=[[0,0],[0.25,0],[0.5,0],[0.75,0],[1,0],[1,0.25],[1,0.5],[1,0.75],[1,1],[0.75,1],[0.5,1],[0.25,1],[0,1],[0,0.75],[0,0.5],[0,0.25]];outlineConnect=0;gradientColor=none;html=1;whiteSpace=wrap;fontSize=12;fontStyle=0;container=1;pointerEvents=0;collapsible=0;recursiveResize=0;shape=mxgraph.aws4.group;grIcon=mxgraph.aws4.group_aws_step_functions_workflow;strokeColor=#CD2264;fillColor=none;verticalAlign=top;align=left;spacingLeft=30;fontColor=#CD2264;dashed=0;" parent="68cRftaq75gitALyQ55k-1" vertex="1">
                    <mxGeometry x="80" y="-3120" width="200" height="130" as="geometry"/>
                </mxCell>
                <mxCell id="XnNgxQ9sJiaZyh9KvzZ--4" value="Perforce" style="sketch=0;points=[[0,0,0],[0.25,0,0],[0.5,0,0],[0.75,0,0],[1,0,0],[0,1,0],[0.25,1,0],[0.5,1,0],[0.75,1,0],[1,1,0],[0,0.25,0],[0,0.5,0],[0,0.75,0],[1,0.25,0],[1,0.5,0],[1,0.75,0]];outlineConnect=0;fontColor=#FFFFFF;gradientColor=#4D72F3;gradientDirection=north;fillColor=#3334B9;strokeColor=#ffffff;dashed=0;verticalLabelPosition=bottom;verticalAlign=top;align=center;html=1;fontSize=12;fontStyle=0;aspect=fixed;shape=mxgraph.aws4.resourceIcon;resIcon=mxgraph.aws4.codecommit;" parent="XnNgxQ9sJiaZyh9KvzZ--5" vertex="1">
                    <mxGeometry x="134" y="48" width="54" height="54" as="geometry"/>
                </mxCell>
                <mxCell id="XnNgxQ9sJiaZyh9KvzZ--16" value="Team B&lt;br&gt;Dev Branch" style="points=[[0,0],[0.25,0],[0.5,0],[0.75,0],[1,0],[1,0.25],[1,0.5],[1,0.75],[1,1],[0.75,1],[0.5,1],[0.25,1],[0,1],[0,0.75],[0,0.5],[0,0.25]];outlineConnect=0;gradientColor=none;html=1;whiteSpace=wrap;fontSize=12;fontStyle=0;container=1;pointerEvents=0;collapsible=0;recursiveResize=0;shape=mxgraph.aws4.group;grIcon=mxgraph.aws4.group_aws_step_functions_workflow;strokeColor=#CD2264;fillColor=none;verticalAlign=top;align=left;spacingLeft=30;fontColor=#CD2264;dashed=0;" parent="68cRftaq75gitALyQ55k-1" vertex="1">
                    <mxGeometry x="320" y="-3120" width="200" height="130" as="geometry"/>
                </mxCell>
                <mxCell id="XnNgxQ9sJiaZyh9KvzZ--20" value="" style="edgeStyle=none;html=1;exitX=0.92;exitY=0.5;exitDx=0;exitDy=0;exitPerimeter=0;entryX=0;entryY=0.5;entryDx=0;entryDy=0;entryPerimeter=0;" parent="XnNgxQ9sJiaZyh9KvzZ--16" target="XnNgxQ9sJiaZyh9KvzZ--22" edge="1">
                    <mxGeometry relative="1" as="geometry">
                        <mxPoint x="59" y="74" as="sourcePoint"/>
                        <mxPoint x="233" y="70.57142857142844" as="targetPoint"/>
                    </mxGeometry>
                </mxCell>
                <mxCell id="XnNgxQ9sJiaZyh9KvzZ--21" value="Developers" style="pointerEvents=1;shadow=0;dashed=0;html=1;strokeColor=none;labelPosition=center;verticalLabelPosition=bottom;verticalAlign=top;align=center;shape=mxgraph.azure.laptop;fillColor=#7D7D7D;" parent="XnNgxQ9sJiaZyh9KvzZ--16" vertex="1">
                    <mxGeometry x="13" y="58" width="50" height="30" as="geometry"/>
                </mxCell>
                <mxCell id="XnNgxQ9sJiaZyh9KvzZ--22" value="Perforce" style="sketch=0;points=[[0,0,0],[0.25,0,0],[0.5,0,0],[0.75,0,0],[1,0,0],[0,1,0],[0.25,1,0],[0.5,1,0],[0.75,1,0],[1,1,0],[0,0.25,0],[0,0.5,0],[0,0.75,0],[1,0.25,0],[1,0.5,0],[1,0.75,0]];outlineConnect=0;fontColor=#FFFFFF;gradientColor=#4D72F3;gradientDirection=north;fillColor=#3334B9;strokeColor=#ffffff;dashed=0;verticalLabelPosition=bottom;verticalAlign=top;align=center;html=1;fontSize=12;fontStyle=0;aspect=fixed;shape=mxgraph.aws4.resourceIcon;resIcon=mxgraph.aws4.codecommit;" parent="XnNgxQ9sJiaZyh9KvzZ--16" vertex="1">
                    <mxGeometry x="134" y="47" width="54" height="54" as="geometry"/>
                </mxCell>
                <mxCell id="XnNgxQ9sJiaZyh9KvzZ--17" value="Team C&lt;br&gt;Dev Branch" style="points=[[0,0],[0.25,0],[0.5,0],[0.75,0],[1,0],[1,0.25],[1,0.5],[1,0.75],[1,1],[0.75,1],[0.5,1],[0.25,1],[0,1],[0,0.75],[0,0.5],[0,0.25]];outlineConnect=0;gradientColor=none;html=1;whiteSpace=wrap;fontSize=12;fontStyle=0;container=1;pointerEvents=0;collapsible=0;recursiveResize=0;shape=mxgraph.aws4.group;grIcon=mxgraph.aws4.group_aws_step_functions_workflow;strokeColor=#CD2264;fillColor=none;verticalAlign=top;align=left;spacingLeft=30;fontColor=#CD2264;dashed=0;" parent="68cRftaq75gitALyQ55k-1" vertex="1">
                    <mxGeometry x="560" y="-3120" width="200" height="130" as="geometry"/>
                </mxCell>
                <mxCell id="XnNgxQ9sJiaZyh9KvzZ--23" value="" style="edgeStyle=none;html=1;exitX=0.92;exitY=0.5;exitDx=0;exitDy=0;exitPerimeter=0;entryX=0;entryY=0.5;entryDx=0;entryDy=0;entryPerimeter=0;" parent="XnNgxQ9sJiaZyh9KvzZ--17" target="XnNgxQ9sJiaZyh9KvzZ--25" edge="1">
                    <mxGeometry relative="1" as="geometry">
                        <mxPoint x="59" y="72" as="sourcePoint"/>
                        <mxPoint x="233" y="68.57142857142844" as="targetPoint"/>
                    </mxGeometry>
                </mxCell>
                <mxCell id="XnNgxQ9sJiaZyh9KvzZ--24" value="Developers" style="pointerEvents=1;shadow=0;dashed=0;html=1;strokeColor=none;labelPosition=center;verticalLabelPosition=bottom;verticalAlign=top;align=center;shape=mxgraph.azure.laptop;fillColor=#7D7D7D;" parent="XnNgxQ9sJiaZyh9KvzZ--17" vertex="1">
                    <mxGeometry x="13" y="56" width="50" height="30" as="geometry"/>
                </mxCell>
                <mxCell id="XnNgxQ9sJiaZyh9KvzZ--25" value="Perforce" style="sketch=0;points=[[0,0,0],[0.25,0,0],[0.5,0,0],[0.75,0,0],[1,0,0],[0,1,0],[0.25,1,0],[0.5,1,0],[0.75,1,0],[1,1,0],[0,0.25,0],[0,0.5,0],[0,0.75,0],[1,0.25,0],[1,0.5,0],[1,0.75,0]];outlineConnect=0;fontColor=#FFFFFF;gradientColor=#4D72F3;gradientDirection=north;fillColor=#3334B9;strokeColor=#ffffff;dashed=0;verticalLabelPosition=bottom;verticalAlign=top;align=center;html=1;fontSize=12;fontStyle=0;aspect=fixed;shape=mxgraph.aws4.resourceIcon;resIcon=mxgraph.aws4.codecommit;" parent="XnNgxQ9sJiaZyh9KvzZ--17" vertex="1">
                    <mxGeometry x="134" y="45" width="54" height="54" as="geometry"/>
                </mxCell>
                <mxCell id="qXmltmMwdDNTnLsC8tnu-0" value="&lt;span style=&quot;font-size: 36px&quot;&gt;Merge Hell&lt;/span&gt;" style="text;html=1;strokeColor=none;fillColor=none;align=center;verticalAlign=middle;whiteSpace=wrap;rounded=0;dashed=1;" parent="68cRftaq75gitALyQ55k-1" vertex="1">
                    <mxGeometry y="-3199" width="840" height="29" as="geometry"/>
                </mxCell>
                <mxCell id="qPeTSVov4uIcMeQq2vBp-1" value="Trunk" style="sketch=0;points=[[0,0,0],[0.25,0,0],[0.5,0,0],[0.75,0,0],[1,0,0],[0,1,0],[0.25,1,0],[0.5,1,0],[0.75,1,0],[1,1,0],[0,0.25,0],[0,0.5,0],[0,0.75,0],[1,0.25,0],[1,0.5,0],[1,0.75,0]];outlineConnect=0;fontColor=#FFFFFF;gradientColor=#4D72F3;gradientDirection=north;fillColor=#3334B9;strokeColor=#ffffff;dashed=0;verticalLabelPosition=bottom;verticalAlign=top;align=center;html=1;fontSize=12;fontStyle=0;aspect=fixed;shape=mxgraph.aws4.resourceIcon;resIcon=mxgraph.aws4.codecommit;" parent="68cRftaq75gitALyQ55k-1" vertex="1">
                    <mxGeometry x="390" y="-2900" width="54" height="54" as="geometry"/>
                </mxCell>
                <mxCell id="qPeTSVov4uIcMeQq2vBp-2" value="" style="edgeStyle=orthogonalEdgeStyle;html=1;endArrow=block;elbow=vertical;startArrow=none;endFill=1;strokeColor=#545B64;rounded=0;fontColor=#FFFFFF;entryX=0;entryY=0.5;entryDx=0;entryDy=0;entryPerimeter=0;" parent="68cRftaq75gitALyQ55k-1" source="XnNgxQ9sJiaZyh9KvzZ--5" target="qPeTSVov4uIcMeQq2vBp-1" edge="1">
                    <mxGeometry width="100" relative="1" as="geometry">
                        <mxPoint x="160" y="-2980" as="sourcePoint"/>
                        <mxPoint x="360" y="-2880" as="targetPoint"/>
                        <Array as="points">
                            <mxPoint x="180" y="-2873"/>
                        </Array>
                    </mxGeometry>
                </mxCell>
                <mxCell id="qPeTSVov4uIcMeQq2vBp-3" value="" style="edgeStyle=orthogonalEdgeStyle;html=1;endArrow=block;elbow=vertical;startArrow=none;endFill=1;strokeColor=#545B64;rounded=0;fontColor=#FFFFFF;entryX=0.5;entryY=0;entryDx=0;entryDy=0;entryPerimeter=0;" parent="68cRftaq75gitALyQ55k-1" target="qPeTSVov4uIcMeQq2vBp-1" edge="1">
                    <mxGeometry width="100" relative="1" as="geometry">
                        <mxPoint x="417" y="-2990" as="sourcePoint"/>
                        <mxPoint x="350" y="-3030" as="targetPoint"/>
                    </mxGeometry>
                </mxCell>
                <mxCell id="qPeTSVov4uIcMeQq2vBp-4" value="" style="edgeStyle=orthogonalEdgeStyle;html=1;endArrow=block;elbow=vertical;startArrow=none;endFill=1;strokeColor=#545B64;rounded=0;fontColor=#FFFFFF;entryX=1;entryY=0.5;entryDx=0;entryDy=0;entryPerimeter=0;" parent="68cRftaq75gitALyQ55k-1" edge="1">
                    <mxGeometry width="100" relative="1" as="geometry">
                        <mxPoint x="670" y="-2989" as="sourcePoint"/>
                        <mxPoint x="444" y="-2872" as="targetPoint"/>
                        <Array as="points">
                            <mxPoint x="670" y="-2872"/>
                        </Array>
                    </mxGeometry>
                </mxCell>
                <mxCell id="0ObEVamK_hmsSH-FMskF-0" value="&lt;div style=&quot;color: rgb(212 , 212 , 212) ; background-color: rgb(30 , 30 , 30) ; font-family: &amp;#34;consolas&amp;#34; , &amp;#34;courier new&amp;#34; , monospace ; font-size: 14px ; line-height: 19px&quot;&gt;System investigation&lt;/div&gt;" style="strokeWidth=1;shadow=0;dashed=0;align=center;html=1;shape=mxgraph.mockup.forms.rrect;rSize=0;fillColor=#eeeeee;strokeColor=#999999;gradientColor=#cccccc;align=left;spacingLeft=4;fontSize=17;fontColor=#666666;labelPosition=right;" vertex="1" parent="68cRftaq75gitALyQ55k-1">
                    <mxGeometry x="40" y="-2840" width="15" height="15" as="geometry"/>
                </mxCell>
                <mxCell id="0ObEVamK_hmsSH-FMskF-1" value="&lt;div style=&quot;color: rgb(212 , 212 , 212) ; background-color: rgb(30 , 30 , 30) ; font-family: &amp;#34;consolas&amp;#34; , &amp;#34;courier new&amp;#34; , monospace ; font-size: 14px ; line-height: 19px&quot;&gt;Analysis&lt;/div&gt;" style="strokeWidth=1;shadow=0;dashed=0;align=center;html=1;shape=mxgraph.mockup.forms.rrect;rSize=0;fillColor=#eeeeee;strokeColor=#999999;gradientColor=#cccccc;align=left;spacingLeft=4;fontSize=17;fontColor=#666666;labelPosition=right;" vertex="1" parent="68cRftaq75gitALyQ55k-1">
                    <mxGeometry x="40" y="-2810" width="15" height="15" as="geometry"/>
                </mxCell>
                <mxCell id="0ObEVamK_hmsSH-FMskF-2" value="&lt;div style=&quot;color: rgb(212 , 212 , 212) ; background-color: rgb(30 , 30 , 30) ; font-family: &amp;#34;consolas&amp;#34; , &amp;#34;courier new&amp;#34; , monospace ; font-size: 14px ; line-height: 19px&quot;&gt;Design&lt;/div&gt;" style="strokeWidth=1;shadow=0;dashed=0;align=center;html=1;shape=mxgraph.mockup.forms.rrect;rSize=0;fillColor=#eeeeee;strokeColor=#999999;gradientColor=#cccccc;align=left;spacingLeft=4;fontSize=17;fontColor=#666666;labelPosition=right;" vertex="1" parent="68cRftaq75gitALyQ55k-1">
                    <mxGeometry x="40" y="-2780" width="15" height="15" as="geometry"/>
                </mxCell>
                <mxCell id="0ObEVamK_hmsSH-FMskF-3" value="&lt;div style=&quot;color: rgb(212 , 212 , 212) ; background-color: rgb(30 , 30 , 30) ; font-family: &amp;#34;consolas&amp;#34; , &amp;#34;courier new&amp;#34; , monospace ; font-size: 14px ; line-height: 19px&quot;&gt;Development&lt;/div&gt;" style="strokeWidth=1;shadow=0;dashed=0;align=center;html=1;shape=mxgraph.mockup.forms.rrect;rSize=0;fillColor=#eeeeee;strokeColor=#999999;gradientColor=#cccccc;align=left;spacingLeft=4;fontSize=17;fontColor=#666666;labelPosition=right;" vertex="1" parent="68cRftaq75gitALyQ55k-1">
                    <mxGeometry x="40" y="-2750" width="15" height="15" as="geometry"/>
                </mxCell>
                <mxCell id="0ObEVamK_hmsSH-FMskF-4" value="&lt;div style=&quot;color: rgb(212 , 212 , 212) ; background-color: rgb(30 , 30 , 30) ; font-family: &amp;#34;consolas&amp;#34; , &amp;#34;courier new&amp;#34; , monospace ; font-size: 14px ; line-height: 19px&quot;&gt;Testing&lt;/div&gt;" style="strokeWidth=1;shadow=0;dashed=0;align=center;html=1;shape=mxgraph.mockup.forms.rrect;rSize=0;fillColor=#eeeeee;strokeColor=#999999;gradientColor=#cccccc;align=left;spacingLeft=4;fontSize=17;fontColor=#666666;labelPosition=right;" vertex="1" parent="68cRftaq75gitALyQ55k-1">
                    <mxGeometry x="40" y="-2720" width="15" height="15" as="geometry"/>
                </mxCell>
                <mxCell id="0ObEVamK_hmsSH-FMskF-5" value="&lt;div style=&quot;color: rgb(212 , 212 , 212) ; background-color: rgb(30 , 30 , 30) ; font-family: &amp;#34;consolas&amp;#34; , &amp;#34;courier new&amp;#34; , monospace ; font-size: 14px ; line-height: 19px&quot;&gt;Training and transition&lt;/div&gt;" style="strokeWidth=1;shadow=0;dashed=0;align=center;html=1;shape=mxgraph.mockup.forms.rrect;rSize=0;fillColor=#eeeeee;strokeColor=#999999;gradientColor=#cccccc;align=left;spacingLeft=4;fontSize=17;fontColor=#666666;labelPosition=right;" vertex="1" parent="68cRftaq75gitALyQ55k-1">
                    <mxGeometry x="40" y="-2690" width="15" height="15" as="geometry"/>
                </mxCell>
                <mxCell id="0ObEVamK_hmsSH-FMskF-6" value="&lt;div style=&quot;color: rgb(212 , 212 , 212) ; background-color: rgb(30 , 30 , 30) ; font-family: &amp;#34;consolas&amp;#34; , &amp;#34;courier new&amp;#34; , monospace ; font-size: 14px ; line-height: 19px&quot;&gt;&lt;div style=&quot;font-family: &amp;#34;consolas&amp;#34; , &amp;#34;courier new&amp;#34; , monospace ; line-height: 19px&quot;&gt;Operations and maintenance&lt;/div&gt;&lt;/div&gt;" style="strokeWidth=1;shadow=0;dashed=0;align=center;html=1;shape=mxgraph.mockup.forms.rrect;rSize=0;fillColor=#eeeeee;strokeColor=#999999;gradientColor=#cccccc;align=left;spacingLeft=4;fontSize=17;fontColor=#666666;labelPosition=right;" vertex="1" parent="68cRftaq75gitALyQ55k-1">
                    <mxGeometry x="40" y="-2660" width="15" height="15" as="geometry"/>
                </mxCell>
            </root>
        </mxGraphModel>
    </diagram>
    <diagram id="uWjWy3pqvLtlc2e7YA1Y" name="CI/CD Spike">
        <mxGraphModel dx="1278" dy="4224" grid="0" gridSize="10" guides="1" tooltips="1" connect="1" arrows="1" fold="1" page="0" pageScale="1" pageWidth="850" pageHeight="1100" math="0" shadow="0">
            <root>
                <mxCell id="0"/>
                <mxCell id="1" parent="0"/>
                <mxCell id="Fp9UOHxq7eHYgcfmFOAw-102" value="" style="rounded=1;arcSize=10;dashed=1;strokeWidth=2;strokeColor=#ff8000;" parent="1" vertex="1">
                    <mxGeometry x="594" y="-2805" width="507" height="285" as="geometry"/>
                </mxCell>
                <mxCell id="Fp9UOHxq7eHYgcfmFOAw-2" value="VPC" style="outlineConnect=0;html=1;whiteSpace=wrap;fontSize=12;fontStyle=0;shape=mxgraph.aws4.group;grIcon=mxgraph.aws4.group_vpc;verticalAlign=top;align=left;spacingLeft=30;dashed=0;strokeColor=#000000;" parent="1" vertex="1">
                    <mxGeometry x="320" y="-2870" width="790" height="380" as="geometry"/>
                </mxCell>
                <mxCell id="Fp9UOHxq7eHYgcfmFOAw-66" value="" style="rounded=1;arcSize=10;dashed=1;strokeWidth=2;strokeColor=#ff8000;fillColor=none;imageAspect=0;align=left;" parent="1" vertex="1">
                    <mxGeometry x="590" y="-2803" width="506" height="280" as="geometry"/>
                </mxCell>
                <mxCell id="Fp9UOHxq7eHYgcfmFOAw-1" value="" style="rounded=0;whiteSpace=wrap;html=1;dashed=1;strokeColor=#000000;fillColor=none;strokeWidth=2;" parent="1" vertex="1">
                    <mxGeometry x="339.25" y="-3150" width="760.75" height="140" as="geometry"/>
                </mxCell>
                <mxCell id="Fp9UOHxq7eHYgcfmFOAw-3" value="" style="rounded=1;arcSize=10;dashed=1;strokeWidth=2;strokeColor=#ff8000;" parent="1" vertex="1">
                    <mxGeometry x="360" y="-2805" width="220" height="280" as="geometry"/>
                </mxCell>
                <mxCell id="Fp9UOHxq7eHYgcfmFOAw-4" value="" style="rounded=1;arcSize=10;dashed=0;strokeColor=#000000;fillColor=none;gradientColor=none;strokeWidth=1;" parent="1" vertex="1">
                    <mxGeometry x="695" y="-2703" width="240" height="151" as="geometry"/>
                </mxCell>
                <mxCell id="Fp9UOHxq7eHYgcfmFOAw-7" value="" style="outlineConnect=0;dashed=0;verticalLabelPosition=bottom;verticalAlign=top;align=center;html=1;shape=mxgraph.aws3.virtual_private_cloud;fillColor=#F58534;gradientColor=none;" parent="1" vertex="1">
                    <mxGeometry x="304" y="-2890" width="79.5" height="54" as="geometry"/>
                </mxCell>
                <mxCell id="Fp9UOHxq7eHYgcfmFOAw-8" value="" style="outlineConnect=0;dashed=0;verticalLabelPosition=bottom;verticalAlign=top;align=center;html=1;shape=mxgraph.aws3.internet_3;fillColor=#D2D3D3;gradientColor=none;" parent="1" vertex="1">
                    <mxGeometry x="144.5" y="-2653" width="79.5" height="54" as="geometry"/>
                </mxCell>
                <mxCell id="Fp9UOHxq7eHYgcfmFOAw-11" value="" style="dashed=0;html=1;shape=mxgraph.aws3.permissions;fillColor=#D9A741;gradientColor=none;dashed=0;strokeColor=#000000;" parent="1" vertex="1">
                    <mxGeometry x="363" y="-2820" width="16" height="32" as="geometry"/>
                </mxCell>
                <mxCell id="Fp9UOHxq7eHYgcfmFOAw-17" value="&lt;b&gt;Internet&lt;/b&gt;" style="text;html=1;strokeColor=none;fillColor=none;align=center;verticalAlign=middle;whiteSpace=wrap;rounded=0;dashed=1;" parent="1" vertex="1">
                    <mxGeometry x="154.5" y="-2694" width="40" height="20" as="geometry"/>
                </mxCell>
                <mxCell id="Fp9UOHxq7eHYgcfmFOAw-18" value="&lt;b&gt;Load Balancer&lt;/b&gt;" style="text;html=1;strokeColor=none;fillColor=none;align=center;verticalAlign=middle;whiteSpace=wrap;rounded=0;dashed=1;" parent="1" vertex="1">
                    <mxGeometry x="264.5" y="-2691" width="40" height="20" as="geometry"/>
                </mxCell>
                <mxCell id="Fp9UOHxq7eHYgcfmFOAw-19" value="&lt;b&gt;Public Subnet&lt;/b&gt;" style="text;html=1;strokeColor=none;fillColor=none;align=center;verticalAlign=middle;whiteSpace=wrap;rounded=0;dashed=1;" parent="1" vertex="1">
                    <mxGeometry x="379" y="-2803" width="91" height="20" as="geometry"/>
                </mxCell>
                <mxCell id="Fp9UOHxq7eHYgcfmFOAw-20" value="&lt;b&gt;Private Subnet&lt;/b&gt;" style="text;html=1;strokeColor=none;fillColor=none;align=center;verticalAlign=middle;whiteSpace=wrap;rounded=0;dashed=1;" parent="1" vertex="1">
                    <mxGeometry x="992" y="-2798" width="90" height="20" as="geometry"/>
                </mxCell>
                <mxCell id="Fp9UOHxq7eHYgcfmFOAw-26" value="&lt;span style=&quot;font-size: 36px&quot;&gt;CI/CD Demo&lt;/span&gt;" style="text;html=1;strokeColor=none;fillColor=none;align=center;verticalAlign=middle;whiteSpace=wrap;rounded=0;dashed=1;" parent="1" vertex="1">
                    <mxGeometry x="290" y="-3240" width="840" height="29" as="geometry"/>
                </mxCell>
                <mxCell id="Fp9UOHxq7eHYgcfmFOAw-28" value="" style="endArrow=classic;html=1;dashed=1;entryX=0;entryY=1;entryDx=0;entryDy=0;" parent="1" source="Fp9UOHxq7eHYgcfmFOAw-45" edge="1">
                    <mxGeometry width="50" height="50" relative="1" as="geometry">
                        <mxPoint x="633.25" y="-3086" as="sourcePoint"/>
                        <mxPoint x="339.25" y="-3088" as="targetPoint"/>
                    </mxGeometry>
                </mxCell>
                <mxCell id="Fp9UOHxq7eHYgcfmFOAw-31" value="" style="endArrow=block;html=1;exitX=1;exitY=0.7;exitDx=0;exitDy=0;exitPerimeter=0;startArrow=block;startFill=1;endFill=1;" parent="1" source="Fp9UOHxq7eHYgcfmFOAw-8" edge="1">
                    <mxGeometry width="50" height="50" relative="1" as="geometry">
                        <mxPoint x="224.5" y="-2589" as="sourcePoint"/>
                        <mxPoint x="274.5" y="-2615" as="targetPoint"/>
                    </mxGeometry>
                </mxCell>
                <mxCell id="Fp9UOHxq7eHYgcfmFOAw-32" value="" style="endArrow=classic;html=1;exitX=1;exitY=0.5;exitDx=0;exitDy=0;exitPerimeter=0;startArrow=classic;startFill=1;entryX=-0.008;entryY=0.55;entryDx=0;entryDy=0;entryPerimeter=0;" parent="1" source="Fp9UOHxq7eHYgcfmFOAw-60" target="Fp9UOHxq7eHYgcfmFOAw-4" edge="1">
                    <mxGeometry width="50" height="50" relative="1" as="geometry">
                        <mxPoint x="350.5" y="-2633" as="sourcePoint"/>
                        <mxPoint x="450.5" y="-2582.442379182156" as="targetPoint"/>
                    </mxGeometry>
                </mxCell>
                <mxCell id="Fp9UOHxq7eHYgcfmFOAw-37" value="" style="outlineConnect=0;fontColor=#232F3E;gradientColor=#4D72F3;gradientDirection=north;fillColor=#3334B9;strokeColor=#ffffff;dashed=0;verticalLabelPosition=bottom;verticalAlign=top;align=center;html=1;fontSize=12;fontStyle=0;aspect=fixed;shape=mxgraph.aws4.resourceIcon;resIcon=mxgraph.aws4.aurora;" parent="1" vertex="1">
                    <mxGeometry x="979" y="-2687" width="101" height="101" as="geometry"/>
                </mxCell>
                <mxCell id="Fp9UOHxq7eHYgcfmFOAw-38" value="" style="endArrow=classic;startArrow=classic;html=1;" parent="1" target="Fp9UOHxq7eHYgcfmFOAw-37" edge="1">
                    <mxGeometry width="50" height="50" relative="1" as="geometry">
                        <mxPoint x="930" y="-2638" as="sourcePoint"/>
                        <mxPoint x="977" y="-2660" as="targetPoint"/>
                        <Array as="points"/>
                    </mxGeometry>
                </mxCell>
                <mxCell id="Fp9UOHxq7eHYgcfmFOAw-39" value="&lt;b&gt;Aurora Serverless Database&lt;/b&gt;" style="text;html=1;strokeColor=none;fillColor=none;align=center;verticalAlign=middle;whiteSpace=wrap;rounded=0;dashed=1;" parent="1" vertex="1">
                    <mxGeometry x="968" y="-2729" width="118" height="20" as="geometry"/>
                </mxCell>
                <mxCell id="Fp9UOHxq7eHYgcfmFOAw-40" value="" style="endArrow=classic;html=1;dashed=1;entryX=0.967;entryY=0.007;entryDx=0;entryDy=0;exitX=0.5;exitY=0;exitDx=0;exitDy=0;exitPerimeter=0;entryPerimeter=0;startArrow=none;" parent="1" source="l--R4v7ilEp9Fyo1Bglz-13" target="Fp9UOHxq7eHYgcfmFOAw-4" edge="1">
                    <mxGeometry width="50" height="50" relative="1" as="geometry">
                        <mxPoint x="942.5" y="-2860" as="sourcePoint"/>
                        <mxPoint x="752.3286516853932" y="-2595" as="targetPoint"/>
                        <Array as="points"/>
                    </mxGeometry>
                </mxCell>
                <mxCell id="Fp9UOHxq7eHYgcfmFOAw-41" value="" style="outlineConnect=0;dashed=0;verticalLabelPosition=bottom;verticalAlign=top;align=center;html=1;shape=mxgraph.aws3.cloudwatch;fillColor=#759C3E;gradientColor=none;strokeColor=#000000;strokeWidth=2;" parent="1" vertex="1">
                    <mxGeometry x="1061" y="-2900" width="65" height="61" as="geometry"/>
                </mxCell>
                <mxCell id="Fp9UOHxq7eHYgcfmFOAw-44" value="&lt;b&gt;CloudWatch&lt;/b&gt;" style="text;html=1;strokeColor=none;fillColor=none;align=center;verticalAlign=middle;whiteSpace=wrap;rounded=0;dashed=1;" parent="1" vertex="1">
                    <mxGeometry x="1001" y="-2896" width="40" height="20" as="geometry"/>
                </mxCell>
                <mxCell id="Fp9UOHxq7eHYgcfmFOAw-45" value="" style="pointerEvents=1;shadow=0;dashed=0;html=1;strokeColor=none;labelPosition=center;verticalLabelPosition=bottom;verticalAlign=top;align=center;shape=mxgraph.azure.laptop;fillColor=#7D7D7D;" parent="1" vertex="1">
                    <mxGeometry x="180.75" y="-3103" width="50" height="30" as="geometry"/>
                </mxCell>
                <mxCell id="Fp9UOHxq7eHYgcfmFOAw-46" value="&lt;b&gt;Developer&lt;/b&gt;" style="text;html=1;strokeColor=none;fillColor=none;align=center;verticalAlign=middle;whiteSpace=wrap;rounded=0;dashed=1;" parent="1" vertex="1">
                    <mxGeometry x="180.75" y="-3139" width="59" height="20" as="geometry"/>
                </mxCell>
                <mxCell id="Fp9UOHxq7eHYgcfmFOAw-48" value="" style="dashed=0;html=1;shape=mxgraph.aws3.permissions;fillColor=#D9A741;gradientColor=none;dashed=0;strokeColor=#000000;" parent="1" vertex="1">
                    <mxGeometry x="1082" y="-2820" width="16" height="32" as="geometry"/>
                </mxCell>
                <mxCell id="Fp9UOHxq7eHYgcfmFOAw-50" value="" style="rounded=0;whiteSpace=wrap;html=1;strokeColor=#000000;strokeWidth=2;fillColor=none;" parent="1" vertex="1">
                    <mxGeometry x="410" y="-3120" width="680" height="95.5" as="geometry"/>
                </mxCell>
                <mxCell id="Fp9UOHxq7eHYgcfmFOAw-57" value="" style="outlineConnect=0;fontColor=#232F3E;gradientColor=#F78E04;gradientDirection=north;fillColor=#D05C17;strokeColor=#ffffff;dashed=0;verticalLabelPosition=bottom;verticalAlign=top;align=center;html=1;fontSize=12;fontStyle=0;aspect=fixed;shape=mxgraph.aws4.resourceIcon;resIcon=mxgraph.aws4.eks;" parent="1" vertex="1">
                    <mxGeometry x="405.5" y="-2723.5" width="79" height="79" as="geometry"/>
                </mxCell>
                <mxCell id="Fp9UOHxq7eHYgcfmFOAw-58" value="" style="outlineConnect=0;dashed=0;verticalLabelPosition=bottom;verticalAlign=top;align=center;html=1;shape=mxgraph.aws3.classic_load_balancer;fillColor=#F58536;gradientColor=none;" parent="1" vertex="1">
                    <mxGeometry x="654.5" y="-2920" width="69" height="72" as="geometry"/>
                </mxCell>
                <mxCell id="Fp9UOHxq7eHYgcfmFOAw-60" value="" style="outlineConnect=0;dashed=0;verticalLabelPosition=bottom;verticalAlign=top;align=center;html=1;shape=mxgraph.aws3.application_load_balancer;fillColor=#F58536;gradientColor=none;" parent="1" vertex="1">
                    <mxGeometry x="274" y="-2653" width="69" height="72" as="geometry"/>
                </mxCell>
                <mxCell id="Fp9UOHxq7eHYgcfmFOAw-61" value="" style="outlineConnect=0;dashed=0;verticalLabelPosition=bottom;verticalAlign=top;align=center;html=1;shape=mxgraph.aws3.ec2;fillColor=#F58534;gradientColor=none;" parent="1" vertex="1">
                    <mxGeometry x="734.5" y="-2685.5" width="76.5" height="93" as="geometry"/>
                </mxCell>
                <mxCell id="Fp9UOHxq7eHYgcfmFOAw-62" value="" style="outlineConnect=0;dashed=0;verticalLabelPosition=bottom;verticalAlign=top;align=center;html=1;shape=mxgraph.aws3.ec2;fillColor=#F58534;gradientColor=none;" parent="1" vertex="1">
                    <mxGeometry x="830" y="-2684" width="76.5" height="93" as="geometry"/>
                </mxCell>
                <mxCell id="Fp9UOHxq7eHYgcfmFOAw-64" value="&lt;b&gt;Autoscaling Group&lt;/b&gt;" style="text;html=1;strokeColor=none;fillColor=none;align=center;verticalAlign=middle;whiteSpace=wrap;rounded=0;" parent="1" vertex="1">
                    <mxGeometry x="803" y="-2728" width="122" height="20" as="geometry"/>
                </mxCell>
                <mxCell id="Fp9UOHxq7eHYgcfmFOAw-65" value="&lt;b&gt;EKS Managed Nodes&lt;/b&gt;" style="text;html=1;strokeColor=none;fillColor=none;align=center;verticalAlign=middle;whiteSpace=wrap;rounded=0;" parent="1" vertex="1">
                    <mxGeometry x="747" y="-2591" width="133" height="20" as="geometry"/>
                </mxCell>
                <mxCell id="Fp9UOHxq7eHYgcfmFOAw-68" value="&lt;b&gt;&lt;font color=&quot;#ff8000&quot;&gt;Static IPs&lt;/font&gt;&lt;/b&gt;" style="text;html=1;strokeColor=none;fillColor=none;align=center;verticalAlign=middle;whiteSpace=wrap;rounded=0;" parent="1" vertex="1">
                    <mxGeometry x="729.5" y="-2910" width="61" height="20" as="geometry"/>
                </mxCell>
                <mxCell id="Fp9UOHxq7eHYgcfmFOAw-69" value="" style="endArrow=classic;html=1;dashed=1;exitX=0.145;exitY=0.855;exitDx=0;exitDy=0;exitPerimeter=0;" parent="1" source="Fp9UOHxq7eHYgcfmFOAw-58" target="Fp9UOHxq7eHYgcfmFOAw-57" edge="1">
                    <mxGeometry width="50" height="50" relative="1" as="geometry">
                        <mxPoint x="530" y="-3025" as="sourcePoint"/>
                        <mxPoint x="580" y="-3075" as="targetPoint"/>
                    </mxGeometry>
                </mxCell>
                <mxCell id="Fp9UOHxq7eHYgcfmFOAw-72" value="" style="outlineConnect=0;dashed=0;verticalLabelPosition=bottom;verticalAlign=top;align=center;html=1;shape=mxgraph.aws3.elastic_network_interface;fillColor=#F58534;gradientColor=none;" parent="1" vertex="1">
                    <mxGeometry x="546.5" y="-2761.5" width="59" height="65" as="geometry"/>
                </mxCell>
                <mxCell id="Fp9UOHxq7eHYgcfmFOAw-73" value="" style="endArrow=classic;html=1;" parent="1" source="Fp9UOHxq7eHYgcfmFOAw-57" target="Fp9UOHxq7eHYgcfmFOAw-72" edge="1">
                    <mxGeometry width="50" height="50" relative="1" as="geometry">
                        <mxPoint x="530" y="-2725" as="sourcePoint"/>
                        <mxPoint x="580" y="-2775" as="targetPoint"/>
                    </mxGeometry>
                </mxCell>
                <mxCell id="Fp9UOHxq7eHYgcfmFOAw-74" value="&lt;b&gt;ENI&lt;br&gt;&amp;nbsp;Attachment&lt;/b&gt;" style="text;html=1;strokeColor=none;fillColor=none;align=center;verticalAlign=middle;whiteSpace=wrap;rounded=0;" parent="1" vertex="1">
                    <mxGeometry x="555.5" y="-2694" width="49" height="20" as="geometry"/>
                </mxCell>
                <mxCell id="Fp9UOHxq7eHYgcfmFOAw-75" value="" style="endArrow=classic;html=1;exitX=1;exitY=0.5;exitDx=0;exitDy=0;exitPerimeter=0;dashed=1;entryX=0.435;entryY=-0.033;entryDx=0;entryDy=0;entryPerimeter=0;" parent="1" source="Fp9UOHxq7eHYgcfmFOAw-72" target="Fp9UOHxq7eHYgcfmFOAw-4" edge="1">
                    <mxGeometry width="50" height="50" relative="1" as="geometry">
                        <mxPoint x="690" y="-2755" as="sourcePoint"/>
                        <mxPoint x="760" y="-2720" as="targetPoint"/>
                    </mxGeometry>
                </mxCell>
                <mxCell id="Fp9UOHxq7eHYgcfmFOAw-76" value="" style="verticalLabelPosition=bottom;html=1;verticalAlign=top;strokeWidth=1;align=center;outlineConnect=0;dashed=0;outlineConnect=0;shape=mxgraph.aws3d.secureConnection;fillColor=#000000;strokeColor=#ffffff;aspect=fixed;" parent="1" vertex="1">
                    <mxGeometry x="620" y="-2728" width="56.99999999999999" height="34" as="geometry"/>
                </mxCell>
                <mxCell id="Fp9UOHxq7eHYgcfmFOAw-77" value="&lt;b&gt;&lt;font color=&quot;#ff8000&quot;&gt;TLS&lt;/font&gt;&lt;/b&gt;" style="text;html=1;strokeColor=none;fillColor=none;align=center;verticalAlign=middle;whiteSpace=wrap;rounded=0;" parent="1" vertex="1">
                    <mxGeometry x="647" y="-2750" width="22" height="19" as="geometry"/>
                </mxCell>
                <mxCell id="Fp9UOHxq7eHYgcfmFOAw-79" value="" style="endArrow=classic;html=1;dashed=1;exitX=0.454;exitY=-0.013;exitDx=0;exitDy=0;exitPerimeter=0;entryX=0.804;entryY=0.833;entryDx=0;entryDy=0;entryPerimeter=0;" parent="1" source="Fp9UOHxq7eHYgcfmFOAw-4" target="Fp9UOHxq7eHYgcfmFOAw-58" edge="1">
                    <mxGeometry width="50" height="50" relative="1" as="geometry">
                        <mxPoint x="760" y="-2715" as="sourcePoint"/>
                        <mxPoint x="710" y="-2850" as="targetPoint"/>
                    </mxGeometry>
                </mxCell>
                <mxCell id="Fp9UOHxq7eHYgcfmFOAw-80" value="&lt;b&gt;&lt;font color=&quot;#ff8000&quot;&gt;API Access&lt;/font&gt;&lt;/b&gt;" style="text;html=1;strokeColor=none;fillColor=none;align=center;verticalAlign=middle;whiteSpace=wrap;rounded=0;" parent="1" vertex="1">
                    <mxGeometry x="763" y="-2795" width="80" height="20" as="geometry"/>
                </mxCell>
                <mxCell id="Fp9UOHxq7eHYgcfmFOAw-87" value="&lt;b&gt;&lt;font color=&quot;#ff8000&quot;&gt;EKS Control Plane&lt;/font&gt;&lt;/b&gt;" style="text;html=1;strokeColor=none;fillColor=none;align=center;verticalAlign=middle;whiteSpace=wrap;rounded=0;" parent="1" vertex="1">
                    <mxGeometry x="371" y="-2750" width="126" height="20" as="geometry"/>
                </mxCell>
                <mxCell id="2" value="" style="edgeStyle=none;html=1;" parent="1" target="Fp9UOHxq7eHYgcfmFOAw-58" edge="1">
                    <mxGeometry relative="1" as="geometry">
                        <mxPoint x="230.75" y="-2989.357966947303" as="sourcePoint"/>
                        <mxPoint x="660" y="-2900" as="targetPoint"/>
                    </mxGeometry>
                </mxCell>
                <mxCell id="Fp9UOHxq7eHYgcfmFOAw-101" value="" style="endArrow=classic;html=1;rounded=0;entryX=0.5;entryY=0;entryDx=0;entryDy=0;entryPerimeter=0;exitX=0.773;exitY=1.018;exitDx=0;exitDy=0;exitPerimeter=0;" parent="1" source="Fp9UOHxq7eHYgcfmFOAw-1" target="l--R4v7ilEp9Fyo1Bglz-13" edge="1">
                    <mxGeometry width="50" height="50" relative="1" as="geometry">
                        <mxPoint x="930" y="-3000" as="sourcePoint"/>
                        <mxPoint x="943" y="-2860" as="targetPoint"/>
                    </mxGeometry>
                </mxCell>
                <mxCell id="l--R4v7ilEp9Fyo1Bglz-32" value="" style="edgeStyle=none;html=1;fontColor=#FFFFFF;" parent="1" source="4" target="l--R4v7ilEp9Fyo1Bglz-27" edge="1">
                    <mxGeometry relative="1" as="geometry"/>
                </mxCell>
                <mxCell id="4" value="PR Gate and Merge" style="sketch=0;points=[[0,0,0],[0.25,0,0],[0.5,0,0],[0.75,0,0],[1,0,0],[0,1,0],[0.25,1,0],[0.5,1,0],[0.75,1,0],[1,1,0],[0,0.25,0],[0,0.5,0],[0,0.75,0],[1,0.25,0],[1,0.5,0],[1,0.75,0]];outlineConnect=0;fontColor=#FFFFFF;gradientColor=#4D72F3;gradientDirection=north;fillColor=#3334B9;strokeColor=#ffffff;dashed=0;verticalLabelPosition=top;verticalAlign=bottom;align=right;html=1;fontSize=12;fontStyle=0;aspect=fixed;shape=mxgraph.aws4.resourceIcon;resIcon=mxgraph.aws4.codecommit;labelPosition=left;" parent="1" vertex="1">
                    <mxGeometry x="710" y="-3099" width="54.5" height="54.5" as="geometry"/>
                </mxCell>
                <mxCell id="l--R4v7ilEp9Fyo1Bglz-6" value="GitHub Actions" style="shape=image;verticalLabelPosition=top;labelBackgroundColor=none;verticalAlign=bottom;aspect=fixed;imageAspect=0;image=data:image/png,iVBORw0KGgoAAAANSUhEUgAAAOEAAADhCAMAAAAJbSJIAAAAflBMVEUBAQH///8AAAD6+vrZ2dmCgoLs7Ozw8PB+fn5wcHBfX1+rq6u6urrT09NZWVnh4eEzMzM9PT2UlJSzs7NFRUUjIyPFxcX29vZOTk7Nzc0dHR3m5uaenp6IiIhUVFR0dHSioqJmZmYqKioUFBQNDQ0xMTE6OjpCQkKPj48gICB6AD7BAAAKx0lEQVR4nO1d2XbqOgxtFOahzFDKUKbSnv//wesYKIU4luQp6V3ej2f1BO3ElmVpW355iYiIiIiIiIiIiIiIiIiIiIiIiPgzgEKUbZk97lxOn+dO/YaP6XD2P+B5NX/Y3vWWjSSPtDbvbranP8ryYvVo06spqD2iMd913v8YS2nt13i+QNn9YDDZv/8VkpmZ7/uealgi6I/P1eco6bU5H+8RtfWo0iQz47aTpim965esz6rKUdg12+COBcdi8lZFjpnn7Fp+vjv67apxFPa89VJX/DIMWlXiKGyZzl3Sk1jVK8MR4Nxzzi/D4KMSHEXEuXM6Pn+jvy2fIsCHweJOx2RWLkfhQJc++Qk0N2VSBBh7G6B39M9lcRQexsUCjyMt6TMCbAJ8wAuW/8JzFC7U/RJYjOY+NEWxxnt1oXnswlIEqIflJ7AMSRGgG5xgkjSC+VQRSvleBAvQCUNR7OIH5RBMknoIimIVdLYN5GPsn6JwosZZGBfw7lLFTjfYMq9G1y/F8gl6pigIls0v8UsRRqV/wQz+5iLMSnUyd/jyqHAKHIoWo+WFIkC/bGJ3dDwwBPCTUDNDenZOEWBcNqsHrF5cU4R92ZyeMHc8FeFQETd6x9opRYAwOScWXHobgF3h73TPo9G2TqjXc9FYrttfo1GnMMhovLujCJ1iQ45XLcWh5TIzNdhNbyKNYhfubirCaVX4K9fsibRl9l38dyz03u6qBd3bbTliCDAh/Uhm1N4+Klis33/X8uFUvOFeHNxQ1L3FZPb7N2Qh325GpuMnqQKAZvS7GacAmrFXe/4JYV7HYqzu8lIMbeLywwFDgLXmFyb5lyhMrCv9Xzqo9fvz3nzZ79fUMfz8n6IkCmfN7zeO9hT1e0LlXH9ygI357vv1nJMlzqat9aT2K5BodJQlXzjqMl/222HtNEiSqfr5YjrKrzSY1L+UEsT7Px7366V8h7uCkjaypymwgMFQ52aeHM0jg123TZAdXiV+4/lb0d8h79jW2SDhWuNU+HiO2lD/p1pHYB28wYf26TlX6gPQ0trQt7IBQJ/ArwLDpG1hA2APD1LxQlyB1WvGPmEghq96I5K9BcM28my7OVC+Ffi+txLzMEm2xgy32KMHQRhuMDNM10RC/jD9F4IhnsYcGjI84FUK92nLvBmEmrpZVoqUIbVZi6h2vOC7sYYhQ0K53nO9UtoxxM0wWzBItcIAzhR3pYmZr9FmZ+4wnOMcO0g5PIOdMABJcrHxzvBIqsoapN2waPCCWvH2yRGIAjN+/EgbpM0A6yFRYmbAkDJIX8NolChJWHbWDUaEp7ot/xTb8kmYij2mLfoc4hVBolJpDWEqLtgMCSPDOKTngmTNF5ch/kjuuLAAJfpYMxli+2ovYoFicwj7C+Z6oSmJ3qBI6PsDTPE3zrKHsmOxTjZzQIndPnkMUf8cVFhO0oLUWQxn6PNc1LU4FulqfBdMWAz1qe4kTLz2aBIau9VYDFFH41qwg5uE7wQ4JuHz2pVIgG7SEVVGMtQnhEH/Fpwh7t4ZVSg8ojFL/VgBT4x9Mxi+Yw8Lks5/MgpL7iddBkM0gmA8zBVgiq3RPQZDNL3FWl3dQK9YyDBgMPzGGAZe76VRgDlThnPAV9fXMhiiaisGQywLlQZfLEjLBYMhthtLg24sblahDOnabzRpUFGG9EQGWpOpKEO6d8AZVnMe/nmGaMLNIUMvp3Iwo3CrXDKs5IofGf5+GMqQsVFxBfhEj+24ZFjJvQWHIRoBBk/TkPKJ9FUaz6GvSmCIKxboxXy8/uvyzBHVKLzQ4HL3VEYmCq+wMRiiO+DwywUh/9dkMMRrrrvgDHFXyslioLLLMMrSB5vQQoNw8PSn4YWZpqNjY3SbcPULozRDqXFbiKtNQNERcjLCBDFN0BIwrZLPkYISSsAr73qvR4sIYlfOxKEIrYJuEUliV1Z1jaDpDCg2IXl3noBJe6rxigVLGWAHUlMORtmC5kxDqdqkPfjeMOtaw3kipYdC08EJVao5eNTNlL/QNJ3BPiLlXARXYYqXIxN3x+FRY0hqXmbRFl4IzwzlTimOlL0XIK0/WegWRCNMsoWpBSWKq5sBtvrUVqLcl00bGQHUbUByCQaWELR7Er6PBQFh5yvBPvhBPKqSbVl8UgQ4EHuJFnUG0DybNjiyl+ePoiBI7IJnkHOAE7VHor+uqYxusAZDiTxM/W2GAYqbRD3DJPhgdGjrf/rgyGmCZ6RCIx5ek1i4vzNFjFBGRyYjMSivafdy5LhBHOvahYXZNod09OkHaffg7DuKB7VYrZgMPYFS/FBbLvsFo3fRHbrgmHVyqTNbTZmKX/K+ZnmQ9469ddWrVDrfW14qJu+k23EbhhurXfNB/edP86NNgRWN7tb0DrxrtyGDhu/G2WnI9Wu49iiGaQuOhbmhZq914HQYupGDY7tr1AjN4pRgXh//IR8mFqq5vndNszfuHGksL+RexxPjLsUWXYUhX0iUIRrAPutsiEUcaX+yQ/PGMOz2alZNtK3a0SqUx30xAuV7P8wIR/iaaMhvf1eG3YUJqmpw/fIZG2KCYzW9lBAuMgJgJSxFE8rGnnLXK+biEn3/pFo4gFUHX9vTO0p/MpEDdZpdNqn17cR1ilDeLYZ1MVqd/V5f5yLopyJRsEFMpqlhXwJTc5DDD46TV12ylvx6LT6iA3GWuuyzyHqaZAfmzhrFIHmGUNNeBXZYU1TmgrLkHRxXgkXxDsTh4YAiuMmgqNU12TiF4VisjkVHH/uMqI2a9nqCI82LWkIu6/gXb7NX/zyjBQCpXqmAq64OMFQtWJfsFsB2D2/Kucg68GgUlDor76mb4KyOF4ZZCepdMY9STmbBKK5xqMtS+9PWheEyaxYF2/mDO0xrG14DAIPgNGX2+tAbcFQEb5eIBU69mpyPw81ylXndtDHotb6Ym2CT2zPcXlGmLEVd5vnF25xbWb+hz7e36Zdsqf7FZMhf8x2XZ/Pb/eQnnpARXE3O+2wrK3dWtbTBykLzlwvn7X+UtfSfErB8AWLUwrYprynMPJNfhh7UPKoQ/N46QgzTrfCdcmkUA/RUH/MyxGyGXi4LUlz3dPfXl5SM2FK1h7d9B+vhTIZ+LkJUtdx6Du2NM4k8hjtf1S6FxrPvJpXPY+hN5aIMshtTFz/HYuhRHqHWRXQdfEYOQ68ielCuzJd7RX7/rk9P4/mUgJqi8Di3exDuYDU7ozP0fgyiWMAz6K3bneFs9vna3nTnK875DgbDAA24ivf0uZfNeSqRYRCtoAzNnDOkRd4BGjNLa2BIKYJ5YOhXf/Vgz4lwMbdzhmk74OkASsHINcOVk9CCbhG0sCSuY4bzY+DTcmIXgRQbeKsFxjDAleM5m+BFry93yXAVpCVz3ipo67KcDhlOQo/QH7Pgn6bewGOokT00QvrQnGGwL1waeQetihl2y/qAV8vgVHRgh1VfL2RY25bKT9oGZ3VGnsdQfXq86V7VaYBMWKOqhLOaRyoZputyB+gdgmM7vzjaMpRyTn9GM6HiyGP4nFJ3KVd1gmxT33kMx23Ww6a8T9abtWaQ0snJr2CVdZYMTr/41T4sVareINW9N6fDaMMh/+vtLoZF96uq/DLIOuI6CwJ6TG05wCYLAS8i48ryk/jJtZn+v2rTkzC184/Qi4iIiIiIiIiIiIiIiIiIiIiIUOM/k1eSYG591sQAAAAASUVORK5CYII=;labelPosition=center;align=center;" parent="1" vertex="1">
                    <mxGeometry x="319.25" y="-3179.5" width="49" height="49" as="geometry"/>
                </mxCell>
                <mxCell id="l--R4v7ilEp9Fyo1Bglz-7" value="" style="endArrow=classic;html=1;dashed=1;exitX=0.5;exitY=1;exitDx=0;exitDy=0;exitPerimeter=0;" parent="1" source="Fp9UOHxq7eHYgcfmFOAw-45" edge="1">
                    <mxGeometry width="50" height="50" relative="1" as="geometry">
                        <mxPoint x="240.75" y="-3078" as="sourcePoint"/>
                        <mxPoint x="206" y="-3030" as="targetPoint"/>
                    </mxGeometry>
                </mxCell>
                <mxCell id="l--R4v7ilEp9Fyo1Bglz-8" value="&lt;br&gt;kubectl / Lens / Helm" style="sketch=0;points=[[0,0,0],[0.25,0,0],[0.5,0,0],[0.75,0,0],[1,0,0],[0,1,0],[0.25,1,0],[0.5,1,0],[0.75,1,0],[1,1,0],[0,0.25,0],[0,0.5,0],[0,0.75,0],[1,0.25,0],[1,0.5,0],[1,0.75,0]];outlineConnect=0;fontColor=#FFFFFF;gradientColor=#4D72F3;gradientDirection=north;fillColor=#3334B9;strokeColor=#ffffff;dashed=0;verticalLabelPosition=bottom;verticalAlign=top;align=center;html=1;fontSize=12;fontStyle=0;aspect=fixed;shape=mxgraph.aws4.resourceIcon;resIcon=mxgraph.aws4.cloudshell;" parent="1" vertex="1">
                    <mxGeometry x="180.75" y="-3030" width="50" height="50" as="geometry"/>
                </mxCell>
                <mxCell id="l--R4v7ilEp9Fyo1Bglz-9" value="" style="shape=image;verticalLabelPosition=bottom;labelBackgroundColor=#FFFFFF;verticalAlign=top;aspect=fixed;imageAspect=0;image=data:image/png,iVBORw0KGgoAAAANSUhEUgAAANwAAADcCAYAAAAbWs+BAAAABGdBTUEAALGPC/xhBQAAACBjSFJNAAB6JgAAgIQAAPoAAACA6AAAdTAAAOpgAAA6mAAAF3CculE8AAAABmJLR0QA/wD/AP+gvaeTAABASElEQVR42u1deXxU1b3//s6dLJCERWRV1iKQzCRisSr6quBSl+prfc9EMmGZSRBX7PZaq6/WtNbW1tYuLhWETAjMBJO6VKt9VStaq9aFCkkm7JpEERWVJYEsM/f83h8zQDK5d5Zkljtwv58PCjN37j33nPM9v+X8zu9HMGHCIFg+/bmsQ0P2nQJJEyTzeBCmEcQ0ABMIPJ6BHJfXnp/O70jmMJtIFuyF7pEZwDSSNEGAxwNiGgjTwJjA4PEApgAQYW6hdhRYsurrS9R07QOLOQ1MxAPFc+uG5HX4xsOPaRCYIIHxBDENxNPAmADwFEgaeuR6BgFggGN6jJLTjNEAPjYJZ+K4xbI5KzL8HcNGq5lyPKmYBsI0YkwgIcaDeRqAaXzQP5JBR+UTBWl1jFDxUqZ840zCmUh/VU+lCQrzeAhMA8Q0QE5govFgTPN1YTIsrAhJx3hDADMnva2ClfEANpmEM2FIOKa4skVe5oR+qt4xR8RMSOSCACY6qvAFGGW895GCx6fzeJiEO14cEWqAUILF+IAjgqdJYAIB41iC+ql6MCSfIoJgEs5EchwR00CYwCzGBx0R0wBMggyO4VEfxDG76bh0QTONMwlnInYyWesy84Tv1DB7TtNx0D+8tyMiQCROT9EUL76ZEs5EWFVPd8/JP4UlCQCgPrbTCc2nKFRKmIQ7wVW9RO05mdCUcGQS7niCsfacTBxvTpMTbmYstXnGStBEABMl5CTBNAlEExmYCOZJCKgsJzJjWgC0AjwUoFkA8gwn5TK6R1Zvcu43JVzKpdMzQ2X3ockqq5OIcCozTQIwGcDEI39URvYRUUSgoB/ihNf1NjFxPYieqG60b+2tOuccVK8m8I8BzDTMpPUPGQ8gLQmXNit55bwNltbPPh4vWZ0kICYFCEQTAe5NqFGm0hUTfExUUd1UujaszWqty8yF+gOA7zLCIk3gC6u8ZRtMwg0Ci2etGWVRsk6VkJMIPBlBtY9AkxhHVT3T5oyvB+IGV7N9RSi58kgtqmoqfSf0cmeh5wJI1AEYk2LHSVm1t9RjEi4aYtk8RQrjm73VPICnAMe8eiaSglUur/06rS+cVs+jCon7VzUt2NLPBi5ad6oqxV/BsKVs0jL+p6rZ/pt07HSRdP2beTaAnwBYCuBSAAUm2ZK+ym73K/5vh/n+//wsqytR2W9+rGpY+KFgywUg+lfqJBynbbRJ0glHEi3mlE+t3QaisrUNiw/pE86ygYAzW22nXa/1/WpvyRdDWLkEhBdTQjiRvntxIgXPbDXnfCrtH75Tyz4LJRSARjD9QEvKAcDD3pKOjKy8b6RC0hHDJFy0mDh2wm4AfgP1wQcM3AfwZeSnUzijeySrNBVECwj89+OMbXVTvDvui/LqHQCmtORPP0vvgpUbrzqs+nuuBLA1yW+Stipl0r1+lS/P9zutng8RyF+RSrzCxH84lJ/xZ40cGfsR2AB+zGGrXUTMjwLISlK73gShHYyLgyw5HCcbd0Nuz4jFlaiUUV6/GwBIKBcD0JViNVuXfF6R775MCnoHwMlJskFNCZcmamUXCC4Gn+Hy2udVN5U9ESkhTXCP6vqkSFrJXwdkORhfBXAQRN8HaP8xAYW3APxzAPd+2q/4r3pg5xXdMczqvcGnzo906eotZa0seQmSFC3KwEjHFFe2SbjokWzHyUcA3YlMyyRXk7282lu2KZYfu7z2NQTcn8Al29XTLW3VW8qeA8TPQPQuCT6DGCcDmADgdQJfCMhbAJwVgyTYx4xbXd7Sb4ZzkmjPajoc/Nvc5dOfiyjdq7eUPQdKYB+FIjt7nEk4g0k4Bt5iUFlGdvsUl7f0Z653S/ZG+9ulRTVTFxXVHN3gnTR6/G0J8MpJBr7narKXu3cuPLhszjNDAfr35JPHfRU9oovB80DyKpfXfl5O98jXBegXAD4E8F7w//s17tkO4BUQfUtmdE+rbrY/AFDMkodIHgz+dUh79oG50fwmI6v9diQp34jISM8g5pREbjBRKyUuftFHwONSyt9Xb1k4YA/agZnZbXnN6g0AHjpiey6etWaBomS8CGB2XNYDxk3VvSI9Vm686jCAnwFAJSo/rsRdc4+QJagOXqx1o2Vz6obLbn+239LdHa+gXglqO5ovSPIiAC9H+s3Kjdf7HPnrbiQhXkv0Yi45PQmXktAup9VzIYBEeQB3UzCNGoPeYCn/UL2lbMdAbuSwen51aJjlrvo3SjqPfjbbNUL4smoZuGyA7fuCCX8VUrirmhf81agTY/Gs9TMURW4L/vNQT7ec4N658GB041u7AuBlCdZebq722h82JVw0qxOJVsEyUbcfzeBXGPy7au/Ctwepb7+Zd9C3CMDKo7bKJud+gK9w2tYvJ+ZKBkZGcatuAp6UhKopJ4/fUPnyfL/RJ4bo6mxDTpYKQAGQk5ElFgJ4OLp+U25n+Iuj7JsBSor0lHApseEOs/gAQLwZ1wPQH0E03eUtKxss2QAA/s7nGXQjwCGaALGrqfQPftV3WvDoyke60gx0t1/xT6ry2kurm+wvpAPZAKC6xdkFoLmXKnRHwMaMjNXeki8Y+F1iJZwwCRct6r0lPWEm6WBWvQVgftVh9VwVj/tVbatoB/BJhW39FVrf12xd8nmVt+zuyd7tEyEwL+jJ3MSg95n4237FP6naW/rjtQ2LPzXSoC+bsyIjqknN/Fqvf57i627/TrTPyMi2/J6AfQmkXFp6KVN23IVArQw+NY63zATQKElcu6Zpwa64DSvjWQn+LoBn9a6pRKVEI14B8Eo6DHrXoexh5QWei2Rm9/PhnCwk+Fkw3dBLrNzmmFXrrt5a2hLZgVJyoNzm/gOY7krI/CFTpYzRjuOWOA/BgzndI86LJ9kAQErxNwAXVhTUnoHjBDVbl3zus/ifJV/WfeU2z/eL59YN0VxsOnwvAui9lZInFKwrLq5ToppcglcBSEilG2YyCRfTgyXFay/uEIPKXN7S5TFFUkQ9ORdsD6iI8js4jrC2YfGhyd7t1zMwMvegf7vDVrtIx45b2dd24vPytvjujOYZqxoWfkjAC4nRkDAmWuKbhAMgafDRJgzsgRTnJ/z0L8u/Mahk2QzPyccT6SpRKV1N9juI6B5idjmtnufLC93T+rx6RvevEVKthpl+7LDW2qMUResS1PwjpatMwkX1YBqchCNgO1Q6l+HPjNZ7NuC2CvE8gKyeDCzGcYiqptJHmLkUwPks0Vhe4PneEc9s0Mb7Yz8TCuxaUlB7UcSbqyJhuUcUVsebhIsSfv+gJNwXDHoZCl4iIe4IRmgkDJYs5SUEIliu679FcHygurmsniRfCZBkwq+d1vVPls9cnQcATJih8ZNMQfyEw+qeHZbM20o/AmhnItqssjQJF/WDuzrbMPDo8pMAXkbgiYD8YaLbunJjyQEA7wCYVZHv+SqOU1RtKXuRIS8E8BnA3+CM7Jcds10jiHGmzk+GAfTc4lnrZ0TQK7ckRsSJcSbhol1RW5xdPMhKlgw86PIubE5KgwmvA4Cq0DIcxwgEDMgLAHwKpi/Dl/UKgBlhVPvxiiL/6bCu+0qY23YnZkjYlHAxddjg7LjPMrMtlUlrK+g1ACDGfy+bUzf8eCady7uwWSVcAuBzAooQOeZ2NEG84izwaJwbZAISk+GL0zCAObV5Hlm2AnTOwDqbHgyqeklamfj14IZStq/bfxWAdccz6Wqa7A1LCt2XCkkvBVTHiBgCwiMOm8cuVL7bMrTjlawDE0VHdu1dYMxK0DJoqpSxSQ0xYMeJRVBdMtu6qsn+yVHjn+kanABY01i2EeASxJCDhhjns6AXfF15Bzuy9h8G4/bEzR+YKmVMUorkQFXKnlObtm5LQYuDsYV8adn0dcNOBNK5vGV/A+OWAfw0O9HzKx1LV6VWwkllwBIuhmQ4cVwg+N0jkykjS7kSJwhczfYVDH7IaO2iNAxgTrGE8w9UwmUuLaqZmvQBZmrs1fr/womEQz3/gySlT4gBQxyzXSNMwkUJvzJglRJSZlya/Pb6m3rZD/P1kqQej6hucXaxQCmAQ0ZqV7B0lUm4aBDMJLV3IL9l5ooUtPdTAJ8E/3nSe7YZNpxAqG60b6VgzhWjQLI6ziRcbBiolDszmBsl2Xrl7qOdJ3EBTjC0w3I/AlmZjUG4NDv5bYR6ay2AbuhQJNwN8IaBpIEbhOF5uNdydTaAB44fOjGVF3jsTLgCoAkgHGbmfxAJj6up9AMgcFrfaa29A+B6Q0iMNNv8Tr2Eo0HlqDzXYVu/MKlTEny4lx13+vEkvZbNqR8mScwHyA5gHhhXEOhesNzqsLnvOGKzdhQoTwLcZoglIs08laknHA/u5Dcx37d41ppRyVsfyNJrtGdGk5U4XbByY8kBQfJDjbceSkz3tBbMWFOJSlFfX6ISsMoQhEuz0lUpJxxj0Ce/xypK5sokNvm0Xn/P6Mw+OO14IVzlvA0WMN0aZrVZ2GI7bTkA+FXlMSO0Od1KV6VewgnZEgfa/pfT5r4x8SrXM0MBnNrXaMfERD9zadG6U8sL3dMSHTT9Uft2YiAn/ASnyuK5dUNqti7YjkC69VTDVCljga8zTnUGmH7nKKhN6Fm17q4DZyAkcl7GN/MYiufWDSm3ev7bafV4nFbPTl9Xe4eqig9Y0i5fl3+/0+puLbe6HYlRKa/3AYFjSGEwIq9dDWad5n+k3gVgSriY4N658GCc8hdmEvHjjkLPrIR1FtM3+3/GcYmpLLbWZZYXeL6Xd9C/m4E/ASgF8CX0OxpDExiUMIcFM0fMrszg4Nk3sSXV8yfdSlcZIlKC41e+ajRJvJiIsK9FRTU5IHL2n6AYMth7Owo9s/Lgb2TCr6NID/6+y1uasDwhU5p3PA5gc3i1MijVyRj7cZZhyniTcLGoBRTX8lWnqKrlH47CdYVxHVS/UglglIZK0zNYspHEaxzmVHWo08ZRUHtLosaiEpWSmZYjTPoLhhgGAEKVe4wwfyRbxpmEi0mNiXu9uFNJilfL890Xx+NmzgL3N0D0Xc3BFjRgdbi4uE4hibUATopxgbqvIt89OVHjUd1c+iqYf6NvN3FW4N35M2MQjk0JF6Ph25KA2w5nQX912mpvHcxNym21V4PoMd2+kgNXq/K88msYWJRNlhR0bSLHZHLzjtsYtFrHBFAAgPzKfkNMYk6f8C6LIVpB1IrEFGi0gPn35TbPfM6wLIulAuqyOSsyfF15dzHz7WEWpm6hHt40cNtVDvjkOIETGjhdiUoJL5Y6beueIknDQaJdArkgOYWYhgNAtkU52InUFwNiyHEm4WKZPBIticz2yIxvosd/vtPm/lFGVseqoPtbX6oVrL/c1yV/C2Bm+HWCng5W2Bkoa2YMfJJRUsbO1bTwL3rfPewtPuS01h6pIZdCwglTpYxt4inJqPl9Epge9nXl7XLaav8nNKU3ADis7tkOq+cvTPK5iGQD9qmg2wc3UZA5iJ8b4FwaMQyw+Z1OlXQMIeFWe0u+cFo9BxFddqjBYiKY72Om+5xWz3sAdoPQDcZUBPa9okEHC1y9pnFwlXpoMHk5Ge8YYewY/BcC3ZziVpheygGgNQXPnAbgq2BcHDXZiP8tpJjrarQPvhYc0UDrnHcqAk8ZYdB6BO5Eis/HpVPpKgMRjpJJuDcGkO/+AyL8ICOr45zVWxY0xaMRGaq/fkCqIeGeQNq+1MPTWLZPIfENAAdTNnPSqHSVkSRcS/IsD9qQkX2wgEFlAHugrdpJAI0grADzNzsKLFOrmuz3RXK4xIKVWxbtAeEXkdRXAE8D9F3JdDEyLWNcTfZ7jDSJVjUt2EKM61LYBGVkU/cY04aLbZlqRZLObTOhM0gcT/APHFNc2TInZwxUmc2ZPfu71Oz9wVrkASSogkFHvuXe3Gb/bADX9HbIMPNaKPRERmb76/EkeaJQ1WyvcxS45xP1KlGcRKhkGQdgj0m46K3vliSSuyv0o2C1z6SfYq6vL1GLrXVlufDvBzAThJWyo/tPwfakFw73fAc5WecAmJ10wgVKV71rEi5qvqmtlCQNl5mlkQYhKEmvQ5qjusXZtdS23q6y/DcCmZeTZxsp6XFMxzA2nDqIHJUxCzgafIS/CX17DoyfJn/BTo/CHoYhXDDn46EkjY5JuARi8pjx9wH8dlIJlyYBzEbLHJwkG4qGm7RIHCpfnu9XiZZikEeXYjPLhUm4AaxTLUl60ASTFolFTZO9gYH7kzh3TJUydrUgOdEmHOc8JCZ0Jpe/8+cAPk2SDWdKuAHoBS3JeQymm3RIPKq2VbSD8bvkjGl6SDgyUmMcVvcCAtUm41mKIieualj4oUmL6FCR756sCsoXwCwmjAHTKIBPAjAc4C8Y9Fa1t/S3oWnnFxXVjLGoljYACU+YyxndI6s3OfcbuR8thmqN5BaI5KwBfp84E8bIq2hMghXUniEFLmLmeQR8VQLDCMFEJ8f+c3TdJuBaZ4Fnl6sZf+59n7UNiz91Wj2vAUh44ZVg6SqTcNEiE9yatBgm4ksBY0TcG0fDqBtH8N8C0LUSPB0cmwpEJOYCfQkXxD+TQbhgtMkWI/exoWy4lVsWfgwgOSFNJC41KXYMTqunlODbBeB/AR6Qjdu70EnIN68n4x3SYfPbYNsCxJSkvTgCT01k0th0QrAgySMADR3UZCLaqCl5VOX9pEzmNNj8NlzJXE7mQVQ1sZmv0gUHcjpOxuBP2+9XO7o0D9TmKuKjpMwdAZNwsUueJJ6LI14EMJ3ohKvZXLIbgHeQt3lI74TDw96SDgCdSVisTZUy5k6jpKZa+JJjSnUWTADArRh4KNahDF/E/baEz7V0KF1lPAknkxbeBQDIs4xlk2uAy2t/SUJeCOC92BdJ/vnK7fZIWZgzkvAaJuEGoOclNZlQu+XAeJNuAazxLnyN/J2z9TIu62DbIc74dbgLgnXthEk4Q6qUySUcCXm6SbVjqNpW0V7tLV0qwGcDiJSZ7IBKKOmTikID/i45JUnNH1E8t26ISbgY0JGvfAQgefvfAmcAQEX+eptJt2NY7S17y+W1zwPJqxh4Fv33Rz9kKS+rabI3RLqXlHJqsto9/FCXoR0nhvTQOa2eXQjkjEwGXlEUv1NVLXe4vPbrTKppwzHFlc15mVbFj5EQ1JXTPeLtB3Ze0R3Nb8sLau9h4juSZJIsIGY/A2cwMJtAu13e0uuN0o8Wg45vSxIJd65ftVxNxF8GAEe++7TqLWU7TIr1RdDlv3FgZgKflzybhNdzH2ki3zZSPwpDjm5ytwYyCFgOptnOM+pGk6DVTqs7KWFfS23r8yvnbbAcz0Qtn7k6D8DZKZxME0zCRVqkJCU77fkUAALd/isBFAK0zpHvPi3RD1VZvah1755XHLNqp6QLgeyF7pExjaVlyJVIcgavEIw1UlZmQxKOKLl7cb0k6xIAIwCcTIKeSnQUCvm71gCcQQpvcto8C41ONmdB7dlZkp6P8WcLUm02GSkrszElHFFrih59fq+/FzgLa89P5MOqtlW0dwtcCuA9MNaWWz1/Naq0W1q07lQmfpKAt6L/Tc1UAF9Pddu7LWKCSbhw8CcxC3OojOtjfweSs5bb1n8tUQ/0NJbtU1XfJQA2MXAZKdzksHq+ayQ1aPGsNaNUVTxDwHgJWR31MKqWW5H4Yo0tAJ4BcA8zlwB4ud+gSuPYcYbcFqict8HSundPJ1LvRVVZwEYSHoB+7vKW/ilRD1o2p264r8v/JID5wYHZqAq+fk1j2cZUdoDDWjeOyP8CGDYQXnQ12S+JiqTWukkK/NviaL8dYsArgM0AbSYpG9WsnobQlApOq+dRAEv7qky4wdVsX2GEuW1ID1nly/P9Tqv7I4AmpbgpipD8IINUgB8tn1n7etW20oQcNVm5seTA8unPXd6Rub8GhBIG5ghJbzmtnnWKIv83FflXFlvrJgn4X2AOlEYm0OPhrr/JWpd7SPhmkhQzBXzlDBoQ2Rj0PgENDDQQ0MBSbp6yZceuSlRGTlFP2NuvKAwZJy2iYV3STNRCjEkpbwfoIgSOlgyBhX8DoDRRz3pg5xXdlagsbbHO+IiAbwdV/sWqSteUF9T+jkj5zWpvyRdJkWy22nnE/scYGHNMxeY/Oq2ea0H0JFhuY9CXAC4goplgzOyEf6KQgcwnHJ3y1AGiJjAaGLxZAA2WbEvjyo0lBwYxcfYihHEMOsVUKSOg3OquYdAigzVLArLQ5V3YnPD3L3CXMWFlyCnsDgI9RFB+lUjilVvdyxj0IOIY4c/AHgJtJMALyGaVaePU5u1bopJaMfcbrQt5+l9d3rIrTAkXdmaLFoLhTs4IQLkRwPJEP6iqucztsK7bTqAnABxJXJvL4NsY/hudVo9LknhgTdPg6oz3xtKimqmqalnBwCWDuE0HAoUsGwDeLJkb/N1odO9cmJwKqULZi37FkUynSeSVyuauYKZVBmza3smjx0+ofHm+PxkPW2rzjFUZ6wHM05a4eJYlPzJl7ITnB9qm5dOfy2rP2n8zge+OIa8JA3gfwGYibpBAA0PZvKbp2vdCc1MmExUFtWdI4n+HjpnLax9jEi4MlhTUXiSIXzRi2wT47NXesreS9bzi4jolr9n/fQZ+AiBTbyEA6DEQajvylTfr60vUyBJt3alSilJmfAtAODunHUAjMzcIITYz0EC+w41V2yrajTY2S4vWnaqq4oPQxaEDluxIx4hOaJXSQv5WCWPWSZckzkEMG8CDRZA891YU1P5NEq8DUKBx2WiAbwHjltxmf7vT6nkbhDeZ6X2w3A8ARGQB0WiACwD+iqrSGWEXXUYdKXx7VaP9/VRKrXCoRKXobQcOOXzS3o6s/f0EyzDpGw+g1SScDoZ2j/qgI2u/hBE351kmNRh32ZwVGerh3Al+UocKFr8G4RcAxob5SR6AC8G4kMAA9eIUc1TKDRGesmS3LwzUFy8z5BypyHdPbhX0JXjx0pHPHth5RbfT6jmIkCxkbKEJJuHCINhxeyKoOqlSKs+KL6GeGdrT2TFHQE5iolPAfAoJmsTMpzDoVF8XxkGABCgpRgADz3aw5dr6jdf7YGCoAt8X4Le01esQwkljbA0Y/WhIqzEJx5OLi+uUaOykqCbO4YOjSdA/ju5dEQUFEaXAyKaVmdkHb6k2ONmCzqRy1kocTLQXzF8K8VZMMAkXeWK3AHSuARuWMXxbz3jEqRjIQVvGh7nNfh+i2/dqB7CLgV0E7CLwLiYaDcYSAIM5UrSbgG9VeUsfRxpAMn0H4CGahRiZ9/bjIJuEi2KxpVYYNImdKpVJ8SJcfX2J6rR6PkDfU+6NBN4kWewiwbuIsMtH/l3BWuhai9PPnQXrz2LgMkG4hANJgCKNryTQG5Kw4hArjxnBixcN7IXukSz5xuA/x2roxHv7qwbSJFxEvjG3sEF3Lph5WFzfFfw+g3oRjn5a5bX/KZbecjXjTQBvAvjJsjnPDFUPHzxTFZhLEKcCPArAyUS0n6VsZRLvAspLLm/Jx0gzZElxM3Ck//sX8CCivdx/pTYJF1FtALUZdaNQSPbH9137RtYweFBxpCs3XnUYwD+Cf44bLJvzzFBfV/utvT7SVikpVOgZI9pEGLp3RcrOxUWWcFDiG8tI8r0Q6T4ZJvrB19VxPYDRYQlH/W04o0g4QxPuUK6lFTCkFdeZMfRAY3wZLPosLiRSfjTJgNJtRQYgvx3y8chgua3empGWnTv8Jmtdrkm4cM6EN0o6AXxqwKb9c2Wc3eZC8Pt9tSKYEi4EPV3DHBpnJKkj+8CYvmuXpoTD4UC0iUm48Kpb6qMD+mssiHtQtZSW0KKFpoTrheLiOoXA39ecI6z2UStZZmgSDoo4xSRc5MltMDuO29rJ8lS871rtLf4EfUv2jjKCCmQU5Db7S6C7zyj6EK5zGPbqrN4TTMJFmt5kMAlH4geJ2a8iBvpmK+tEjynljswC4HbdngvZiwuaIh39riOTcNHASBJug6tpQV3iyIz3+1LQkrZ2nNPqvnRZ/tq42EwOa20wQa9ux43rL8yov5RjaRIuEpTU5agMxRcqLI5EHlMJVZ8ZMi0l3OJZa0YB5PYJZUu51b1ssAl1CfhhhEs0Tk4Yc2vA8ITzyxRlYe4LlYGyGm9JW2I1p5DqoyI9PZVCyfwlgFEAhjNohdPqedZpq504MEnpuRBAhHha1ipRpUE4MgkXCTlkMYCE429Xe+3/l3j7MFTCpZ+nstxWeyaBnSEvdjmYmwYi7QhRlbnSIByZEm4geNhb0gHgs1Q9n5h+7vKWPZgUWksRYsOll4SrRKUA8yM682oYg1Y4bbXPR5vOvcLqPiuYpjDSKI0zVcq4Lvyp8VQS6JdVzaX/m6zndVvU0L24tCJcm23mMgbmRFCbLyZFeh1W922VqAw7/yRElEUc+6uUgjS3BoZUWOtOMgkX0bRJiePkripv6Q+T+UBPY9k+APt7r8iBcCbjo8JadxIz3x3lUjaUQPe2WWf+o7xo7UytK5ba1ucDfFWUj89dVFST02fOsE6EkkytpzJNJFySHSeEH7m89p+m6HV7v6uiHs6dkA5jxPDfC+Dk2H7D57GqvOuwum8LLV7ih/zfWOankJkh0Sba4V2swCRcxIFJ3taAj4iXuprs96TwdfuoldJCU4w+Pg7ruq8wUDHAnw8h0L15zeorR6RdeaF7GjGujW2S+PuqlTrxlGA1pYRLi3K3xGhJwpGBAyT5mqotZSnNhUnA+9xHNTL2qYFKVIpW0EODXbwZfB5U5d1ym+culpgR69wkor57caqyF0r/WSNTHG2SJvWlqTXBp3R2M/hK15ayTal+U8lo6Z3VjgZ5EDXhjhLraUsB+kqcbjeEGb8aoBrUR8Kpmb69FtWixWxTpYy4KmSLBNpw/DbDcma1N/VkAwASMm22BiqsdScx6B5D9FtItMnahsWHQoLBg9eRSbhICJYv2p+AWz+ZkT1sXnUUeT3she6R9kL3yGVznhmayHeVIXtxEsY9+S3J//NYHSUJJJxG3KbxNr/TRKUEENiLGxHHAbp/knf797XKJTlttRNZohyEKQQ5FqBCSJwCgHxd7XBaPYcI2M2gJoLcxCyen9y87e14lF6SFn+LUC2MYMpXgjFtuHJb7ZnMfJ1R2sPamaj3ov9e5ikpXhjSA05r7VMAfyMOt1JBvNzVVPbHWH60fPpzWe0Z+yYJojMkeD4RXY1egxyof8aryS/+ONgqqU6r5+Nj9+bDLq8910i5/StRKVqtM14HcLaBCPdWtdd+dt9+dD8H0OUhl/ome7dnx7su3XGlUgZ6VMZja8BHDHusZAMCqdert5TtqGq211U3l93YUWA5hSV/ncB/P6bS0I/YInc4re67i+fWDRlEO3vZrDR0UdHa0YZSNawzyo1EtkD/c7TxlBkt1oKUla5KH8LRoB0n3QS6pqrZHpfzbPX1JWr1lrLnqrxlF4PoPIDfPkIQgH6Ue9C/saKg9owBqh197LgMmRE3tdJpW3dlIIpj4I4SAL8w4AQZ2y8wWju8C5TCaJO0IRzToCRcJ8DfqPKWPp2ItrmaSl+f7N1xDhF+AOBIvsp8SfyG0+ZZGPu79iUc4pQyz5G/7hyweEpl2ey0enY5rbUPOKyeyxxTXNlR25hQf2YUR0kIsuyFnhF9u01n81vxm4SLuH6pSsuAuQoscnnL/pZgu0ZWNdnvg8DFAI6U180Co8Zprf1RTA1m6pvBKw6Ok+XTn8siIVYDR4vuTQP4FgL+SjmZnzutnqedBZ7rw51bc+av/zLAy4w6R4ayMi5EK9KWcEwm4SJ6Orh7YBKOcG+V1560AhWuRvsrEvIKHMupQQDf7bR5oj91QKGxo4OXcB1Z+++EdiHHoBqMq0B4BMxtDqtns8Pq+UW51fMfR2IcK1EpoPBDvQhrOMiQ7F3Qk3ApjDZJG8LVbF3yOQKVY2LBDu7oTnoQ8hrvwtcE0QIEanAfEVM/c9rcN0bze4XVuKbMC9qSP4jBhiwi4IcMvJrb7P+03OqpbbPN+B2YzzHyHJEhWwPEmglhwZy6WnHp4zQJIKYUByz529Utzq5UNHR1U+mzAP88RLn9vbPQc0FEwmUfbgWg9iLAgAlXOW+DhYkfRXSlsLRwEgMLmLHc6JNDhBxEJUVqnxjQ3CQ3CafVUS0xXPts9Zay51LZ3o6CjEoQ/avXRxmQeGzZDE9Yp0MgqzPv7vUuA1YpWz/bc1vEQ6HHDUJOfvd07dWR4KaEi7Kx0dtxTL9MdXvr60tUJnYC6C1lx/oy8IfIzafei8vJoQcso4Gj0DMLjB/hBEGoSlm1raI9pO+PwLThojQuopJwDDRUN5e+aoQmVzfat4Lw25CPSytstV8P7zfpuzVgUUVMUq64uE4hiWoA2ScK4UTU2btwcqpO0qcX4WSUEo7pCUOtE77OXwD4pM+rMP+mct4G3VhW6ueppJjSzOVuUb8Dg0WDJMHkiLZ0lejqGjneJFykiUvRpVog4P+M1O6qbRXtIPp5yMczWz77eHGY2fNeyCIyJdrnVVjXTgfLn+DEg0ZxRs3wLgjZM8EkXETCRZdqgdTDzYZbfTu6VjKwp+/iy3foZa4iGaI+E6KScJWoFCopq4N7aycaRofmRgFrh3cJkZpKOmlFuFVNpZ8C6Ixw2SdBY9lQqG5xdoE4NL/llz6wzbxcU3tW+p6LY0JUEq7FOuMGYpyPExPK8C3+k6NQKcFgU6WMQnYxInsqVaO2PlOVLhyLtQwMPPMtWtdObtq2G0BPrzePuBdXke+eTMC9Jwi5JIAdAP4E0J0M/KcKy+RVTfZPolEpGanZ/LakWy8T0MLArDDfDzFq21duWbTHYfX8jYCv9zL0L1lUVDNmbcPiT0NUQ+mEpxVHa6JFCu9ikqJ2BYC845BcHQAamXkzgTaRgoZsaWkMZuWONGH09uImmISLxhYitIbLJ8TASKetdqKrqfQDYy4YVA1w7y0BxeK3XA1gRe/ryqavGwaiz8EcJBxNqJy3wVL58ny/1n2dBbUOAJceB+RqBbAZ4AZAbBbwb5ro3fXeQA+MEuhT1powZBIuWkWiNdI5dWI5H0CNEZuf2z38mY6s/fvRO10EYYnT6lEJyGfACnA+QJPAfSaK5YNPPjpFS6Uun1k7AcS/4fQayW4CmpixGYI2M9DQQ3JzMPt0PBfozzQXaDYJF2UHUitFSJknQd+rROW6VB2jD4cHdl7R7bTWvhKSLmIugLncW+HRMk5JTNIiHFv4QQAjDWwG7AOomVluJMJGVcA7rHNk0wM7r+iO53Pshe6R2ZKskngOsSggwMosz9DpT5NwUQ0eoSVSikoCilpsM8vQhLXGXDTkBmKKOT8LCZ4MoE8EjcPqXgDgaoO8mh+ErQxsJkYDkdgkIDf3c2QMEsXWuswc+ApAohDMhQCfTqAiSIxjAMQE4IgiqasOjVg255mhKzdeddgkXLhJ50MLR9FqYn7YYV23tdq78G3jacW0YYCHyiZr2Ci/TpXUYmATgAYwNoPF5lzfMG+8pVb5zNoJ0sJFBBQxoYgYRYB/FkAZx1TugeXCUrv2TwCw0yRcGEzatu3jVuuMbgBZkcwlgnixPN/936lOXx6KmqbSRqe1di+A2JIDaaQ9Z1APJTYrtQSwi4g2MXgzMxokLJvjXQ22eG7dkKEdvgJicTqYCwkoAnA6g0fR0UU03m8mTMJFQsBdXvsBwNOjuHwYC3qu3OpeVuUtqzaQnGaQ520wrtC54EMAO0Do7H2NVtpzChzjmRqnhvVxvzPLzUNFZlNU7vcYUJHvnqwKKgJxIUk6HYQiHPSfBpCS4JT2IXxL/l5c+nkpA/O1BYzpUV6dwaAqh809obqp7OfGMeSwo+8/8bgk/DQ7K2/nEbuivNA9jZmu6HWNhkqJDwc4RePqftfCTda63MOyxyYEFUmgiEBFAAolMIICEjulmVEpBZ7KtCQcc2RPZT9fC9M9Tqsny+W132UMxwm/T72yuhHwYU2TvaGP+jxqQlvr3j0+HDut3V+lJOyO0BVdBHh7u99h6dpUvcm5P55vs8T22DSCejqkKCRCEcCnd8I/lYQQDINmHCaTcNEa7C0D/OmPy61uf5W37O6Uv4Okg31nIWX2U59fnu93Wj0tOBptgpxlMzwnr9xu/6zXXN/dSw37OCC1sJlBm5l589Qx47fpbZYPBMvm1A3v6VQD6iCC6iDX2sDIBchICaL1sD8o3dsYaDAJF9V6itaBjiuDfuq0eva4vPZVKX0JQYd7b2wzpI4qxzsBOkI4dGfxZABHCaeq9KywcJMFaNB0vw/w3ERxcZ2Ss9V/mlAD3kEEnBiFvi7/lGPltDiZJld0wxs4kdFKQCsDbQRqY1JbhWpp6fL529w7Fx5MZQPTknCKKlulGJSS8kdHQe22VJ4KJ8hc7iPiqF1bF6advQNOFBaTAGw88u+arQu2A9g+mLY4ZrtGCF+WDeACZliJxBxu9s8GkMPG0gV7GPhcAB+B6L3AmUH5HiTeU4n2SIu/JVCmyrhIS8L5REaLggFpSd0AdhJhB5P8MkI2kZO6FEsa05tvROjQkcg7+4iRQWRhXjZnRUZPT84sSKVQIGBnMVAIH045uklMx7aMU4CDILSBqYUhWwnUxuA2IagVPdRatW3BnnTQWY87wnUWYHduM3o7E/rwkYD3JbCDwNtB2EEqdkgWO6ds3dZmmHAvwrQ+/5bQrLjDqtxJvaQ5R1kRdanNM9Yf8AyeTiyLGFTo60IBAZkppNTHAFqJAkTiQFxsi4Bo6xJqW+Q4ylKkO9KScPX1JarT6nktILFoB3OAWExix9STx7bG00mQQHw1hICa5/xEhtzFau+4lL7JhJZPfy7rcOaBAklcBEIhgNPBKFIZY+gIRZPjI/Qx6EMCtwWdEi1E3CZBbdIvWkVXZ1uqcoQaCQQTScey/LXjfULZ3bv/VVgma0VvFFvrMnPhP4xjKcZ3EFDFOOrImJmkhfMQEJBILDnojKBWhtqaoaD1wMzMPfX1Jao5uibhDAdnged2EHpvwu91ee26Ncsc1tr3CDw1wRNhHwN7QPgITO8x5HtgvCeI9kDwR1WN9vfT3X4yVcoTEMXFdQqa/df3dYzgrfBk4J0YXPiWH+CPAGoj8Psc+H8bA60KKW0H8kRL/RslEXLFlJmDZxIu/ZDX7CtjUF9PI/ELEeTPToAvCXNBJwLBAG0EtDGojQmtkGhRWLZNHDthd5rYtSbhTMQPjtmuEeyjX/UbBKGGLxTJvBmEdwFqA7gFoFYCt4Go1Sd8baH5UPphi9n3pg13ItpuNs8jYFzfdwDotSpv6X+YvXNiQJhdkCyy1d4aSjYAkJAPmr1jqpQnNBbPWjPKwv6eeCSULS6uU3K9/h+A+R6Nr5szszseN3vcVClPcDA5CjwPk6DXOvIttQPdX1pqW5+vslwF4FxNy4xwaXWT/QWzv03CmSrgGXWjuce/WQDtTPQo+eCp2lb6UaTfVc7bYGn79JNLJMmbCbhcT21n4N5qr/12s6dNwpkIoty6/nSGfBHAyQGOoAGgN5lkMzF9SkRdkHIoCDkMTAToXABnAciNcOtVHQWWG8zIDJNwJsKTbrDoYfCPq71lvzR79sSE6aWMgCrvgs2SxDkA3hzkrV5mIc80yWZKOBNRoBKVosU2s0wwfyuGIvV7AfwZTKtczaVvmr1owiTcALDYWjfJwv5zJOFUAZzCoKDNxp0AfcbAe8y8+bDVstW000yYMGHChAkTJkyYMGHChAkTJkyYMGHChAkTJkyYMGHChAkTJkyYMGHChAlDw4ylNJEWKJ5bNyTvC3UkMmW2pZsO7jvdss8IcarFc+uG5BzEcCF8QwGAZMb+g0BHvbekR5Nw5VbPFwN5kAxU1tyPQMbefQR4CfSaxcev9ykYGEc4rZ5SAh7S+o6BR11e+21R3cfmeYE46oj/ga1kTBetbi59N9J1S4tqpqqq5R2t4rsMNLm89vMH25ZFRTU5Garlg0GM8z4C7WNgH4gbAfl6N9FrkYtvxI5KVIpW28xzmHEZgc8CYAMwCkC2xuUHAHzIhE3EeDlDqs+u3LJoTyLGc/GsNaMUS+bFYFwAcCGAGQBGAMjU7jbsAfAemN8l4C1JGX+v9pZ8TE6rJ97pqxnAawAenuzd/lg8q9U4rJ43KXCiWgsHyd95ajSJf5xWz78AnJ1IwjHkWdXehW9HbEuB+z4Q/U8YFeSrVV77PwfTlpusdbmd8LcnYJxfIeDBKm/pE4NNg76oqCbHolpuBnAjgCkDvI0K4FmW8hfVWxb+Ky5zzua5BIxvEfA1aFdrinrtItAbiTiASgD+A4Cn1Trj3xUFtWfE46YVVvdZYcgGAMM4Y6gzndSkZXOeGQqi8vC9Sbca2ByZx8CfnFbPm0sKPNYBj62t9usW1bIdwC8HQTYgUPDkP0mI18ut7pplc+qGD/RGS23r851Wz8vEeJ6Arw+SbAAgGHxeok98ny6J33BaPYMu7MXALZEv4lsqUZk2p9h7ujrKAJwU/pX46sXWuknGfhP6iiC87cj3fHMAZsKPJfNfgLgWuCcGLfJ1+d+syHfHXMDSYXUvUFl9B8AF8e6pZEzOLADryq2e/x74auMZy6CSKC49rdU2/Yr0kXF8SxQXWRT4b06DlxlCAvXlBesvj4VsAH6SwDbNVIXYsKioZkz0KmRtOYE8AA1NRIMsYUTKDQzWdKgIwhBJGCmAkcxiNsDnAhgdXpxizRLb+k1rmhbsilkxZ7oO4Kwo15BvAfhL2Gkuca8QHGEQ6EwGrtP4fCdB3hexGZmZLWEnW6HnAkgURbvmLJvzzE9WbrzqcPz1Ql4iGZ3a2iwNZeIRxHQSgDMQyK85Ktx8YpKepUXrClc1LPwwvONq3ZVgVEZo3kEi+htDbgDTNoL4nOA7JNkySgicLJnnAvw1gL4S5v2mZqiKJ1AMJbydGRgTXonI3vtPCXiJQW8Bshks9rPCB+BnlS0YJiQNB+M0EM8EiblgPvMI13QJp2ZY/lKzuWR3lCs1OW3urxMrP2TweToX5QhWHwAQkwRaNmdFhq+Lb9D46gMAeUFPUe+F4qKK/PW21VsWNOnds3qL/amIq6+t9gCYNQjHe6q8ZSsHPdOlpoosESi9EWoPneTv7lgM4JF4E667m59y71x4MJprK1Ep2mwzv8Esbw8zyUdIqdwPoCScgwSqWBFmYvcA/CuBjN+ubirRWvR3Bv//LIAfOQs9F5DEb/RyzTDoonKrZ0mVF9Xh7Glf18EagJQwZk0DwL84hIwn9Nz+vfDSkb+Uz1ydJy3ZXxegJXFSKYldTQv/Msm77XxmqgxOHK3rLq+wus+K5c7+zryrAZyica+VYF6l2RghjepoOELmiQC+qeGFeJ6I7tSx5ZYDnNJ900pUyqqm0ic7CjLmEuiXgTmo2dZrKvLX23Q9G6pySxib7YBkusLlLbtztbckqi0rV6P9lfZhlq8CeFKfLHTXsjkrdB0fPd0Hvw1QGFuZf5vXPeKsam/Z+ijI1gdV2yraq71l66u89stFvAekurn0Jwy6R3dhZ7o+JiuHsFzjY1+G9K9mKR5CwBUcuhItXDxrzSjDuhgkbtDSLpj5kfZ85WkGva/xs4Jy22OXGKH99fUlapW39IcE/Fb3FUm9Tk9KEuhGfV7IhWuaS/8ec5veKOnsgGUBAL29zym+zlxN7arYWpcJplv01VL6pctb9t0Hdl7RbUinyRTvtkrdqp6Ey2LwFs1GYIshFH9euWXRnuqtpS0MaKmHQyxKxnVGJJtjiiubSUtVxYeTx0x4tr6+RCXgAe3ZKL9lpHeZNHr8bQAadew/zXFuKZh5HoDJOnRzuZoW/mXAC4G3pEclOPQkL0B2rU/zWF5EwHid226Y5N12R7z6LCGEq0SlFMCvdL6e4JhVOyU6RZWW60jJR3q9wO909O2bw6kQKZNuOVnX6jiYHj1SpTQjW6kC0K7xUpcvnrV+hlHepfLl+X4C/1qn/09znlE3WmPCXaZv1uL+wbappsneQOCXdBb7i7W2jZj4Kv02yTvjGbyRsG2B9gLLUwA0jXEh5HmRfr941ppRIJRq2Dnb1zQvONqhVV77PwnYqHGLU33dw/7LcISDporsJz8dtUdXbiw5AGaX1s+FohrKPs3pHvkYgG7NV+32nauhbJ6tQ9C31jTbvfFoExPpOUdOaiv60mn9G8pn6az4/17jXfhaPPsrYYSrry9RGfwvnaeeFun3ipJRAWCIxiq4ItS9K4l+r93zbCgVrLzQM1fbk0ZPh1bmESQf0HI+EWiJY7ZrhFHe6YGdV3QT6B3tcRanaRhphdoLEcdtYhPx67pfqopNg+wF2tOH/h7v/kroxjcxGjRfRGJkuN8VF9cpAG7S+KpTqr41oR8eYuUxDgSLhmJurF7RRIKlpnQDE/dz96/2LtqJgNs7FLnwZZUbaSEJuMs1nUMjQx0m0CmKwhDvxKs9VY329wnYp6O2ju3972VznhmqtbAHL3493n2V4Aqo9IX2ChSecDlN/qsgNA3r+pqtSz7XMpbLre4/MuinGh38LQBlqZ6Uy/LXjvcBGtE2tLO6acGLgKY9/zsAGvYF3VJcXPd746RR1w6Q4JBx3l542vAsqbPIEz6K47xjhucjoP88C5170nfgJD25Iyz4JGrtxepZyYSpKZVwTDigvZpR2KBSEtqSgIT+xq9PUVcA6NL41TXlM2snpHpK+hVxPbSOclB/FfkIXF77S1rSg8BT87ao/2kYu1RnnAHZZ5yzob/QKlLvHgO1lWm/zld9Cada9LePSI1qH7C8aO1MBq4D4+JIfxJKOMHaopoA3RClYNT5fI2vNlc12t/Q+93ahsWfguHR+CqTLfLGVE7IYmtdJmvvP3Zn9HB12D4k/oO2fWEc+5R1xhmgvuMslTzde1j8cQ1bY/BhHSmQFyILhT7fEJ0GoVqiPqWSUMJJ0pZkknm/boMC0o36r6L0SGSCi99Ccw+Gri+eWzckVRMyj33FAMZpzIr6SId1c7pGrgM0VZsLym21ZxpCwgHDdZjYd5z9vFeXIL6MnDg3a5iOc6ajD1ckdA/R+oWIeLynct4GC4MXGcKGIx0DWZDQVB8cs10j4NO0t9rhO+w+pi+vP12y2m8/SoUKArWh/8bq6Jx2tRRAVUokANHNOqrYiiN/X3x63SnC19+N3h6YD5sJ9LX+CxduBpDyM4CsM85EfbeF2ouUT3Kb/X7NeSfkiGQQDui7CGTmKPt8XX4dySUitumDzz6+FDEcLUqw04RP13b+SM1VRfiyHKxRH5uZ3a5eJ7kZcg0RnR6jGX1rKghXbqs9k5nnanzV2Pskt8Xvv4OJboptQeMFi4pqblvbsPjTFHPudB0i9hnn+voS1Wn17AEwUeNd4nbmrxKVohU4NZo2rdxYfNBprVUROLwa2qYCAH+PsNhMJKJ6jTn7nwgcTUsO4YqL6xQ0+zUHQiHRpN1JdLOWRihIOapOVljdZ0mdAY40Kcqt7vlV3rINybVvtM+8EeiodAtEqrcPxJOanaEq1wO4O1VMc0xxZUNnHwuCGjUcae8T9yecBM4EUB2PNrUUzphBEnnaCy992m8pRm0bgaf2l9B8DnTC7I6gqqn0EWic4nBaPZ8AGJM0Gy6n2X8JgBydlbnfnktL/mmXATxd4/I3qrwLNh8bGBp4jGSS0xUEQ5uu1fiqo7tbXXvUVug6WAI9OyiSnQy6sdhal5kqwomcLL30A5J6Ov+toV+/orMA/Ufc2sS6R8SgAl4Nx9RmnQlzUbz7NmGEI6BCZ81vW9Vk/6S/s0Q7bpJwbFO4fObqPAALBuFNu6q80D0tadLN57sOGtmmCKjtfQaNB7GIEDA+l/wlqSIcg3XGGVu1EjopUr6op4EsKXTHJ5MaCz279sDUMeO39V+0+GWd68fmQL3G8IRz5K87B8DVOlOk38stnrV+BgOXalz8uTzUU3e0H5UhdmjYeDFAYYlbkjERK+dtsBBrH0NhKY4uIsFtkHMHOetTskXgtHouBLRPBRCgOYkPiox/AejQHBypn70s6jYV1J6tdwiaCBuOBIiHTIpnoXPCgMB3BNXmuCDuNlzZ9HXDSIgqLSM08NLC3e+FhXozQKQxaGtcLc6jm9muZvsK4JhnL2zH29wbwfRljRaUl89cfVc06fQGg9a9H38TGoY7A29Vb1lwVNUKBuxGdbC03Ob5A7NmUMCZS6zrzot3oG04VFjrTpLwP6rXdiZya31e7y3pcRZ46kAo1+ibBQ6bu766qeyJgbRp+fTnsjpo/+ow+net1servYt2OmyeV4mhlQPUiqGZv0UgfZ+xJJzDWjcuM0u8DCBf55LmqqZrX+gziWauzgORQ2vM/IFj+ANVH/XyjgyXyhBHwlUtYm0VmQeeJkH66X4Afm27RSTNPnXaaidK+F8FoKOe89uuplLdOERW5O+gkxWAmKpjSUR0BIuKanLas/Y/jv7pKY5gd07PiD+H0RJ+rW/60w3lVs9D8TjuFRfCLSqqySm3eb5P8HsRSDajZ2/8uF+kv2XIImjsmRD4pZqtC7YPtE2HCjLqAbyno1osT2Q6vXLr+tO1VksC9mUMyXtsoPet3lraAnCdTuf+VzB1Q8JQPnN1ntPm+V8wN0LPMxnAnWHfo3FhI4NqdL7OY5JPO62eX0Z7ar88332xRbW8FswfqUeou8Od2K722p8BsEH/57jJ15X7miPffcVgUl3oqpSKz3+lo8D9hQ5LM6XAyQQaC8bZUHEea+w5hODpKq/98X6KB2pv0X5BMaiEOfX1JWq5tfZ+Bj+o8fVpH9hmXo4mzWj8ODgSpM47oWawmbcYuI+AUg1VzkKBjfAfxnK/rCz6pqPArZ21S1AWMU6WwFgC5jIwF4wIXjv2uLxlf4toTEP5noT/Emjmq4EFwA8UJeNGp9XzNxC/xBBbQOrnAnRISh6lkDKGJc4F8aV6yYN64dXJzdsfjdi3KpWTwpug6zGmr5DAs+XW2u2A50UJfhUsdjP4C0XhTil5lGAxVRLO1LuHJYz76xHSMS0YsSW2JmB7l2BH/5XJcxGD8jXuvycz++CfB22gZue6fF3td0HjhLUMxCLGnXAB28Zn1yoVoNDAVeRjK3HZJqfV8zw0nEwMvm7ZnGd+GgupGbSGSJ/djJgqvjSSv+uGaC5c7S35wmFddzVBbIDO9hECWdmuAdM1BAZYBNtDkMzRNuxD8tOCaE5tV28tbSm3uq9m0F8RRoBwoK7ADALdBGIQAJYEAoEpfLOSkQi2EX6ar1X4gXW2AgBatXLj9b7BPjg48R7U+friwaTn1rfd/BU6SURfWdW0YEucHqOXvuIkX2f7IqQG7yDTclEszqhq78K3KZBy4YsEtWkXS74w9HBvOFR5yzYIyV9LVJsSSTgJwgq/4p+r9cJLi2qmQlvnViWUVfFqhKr6HgJwSFtjiu9GeHFxncKMm3Qs77jllHR57S8BeEdHnbg1yen0/GD+Ax/q/qrr3ZK9sf64ymv/J6s0hwn/iPPS95iA5azqLWU7Yv3l6i1l/1AtliKA/pIOhOsGUMvgOa4m+w1rGxYf0iSCX7kJ2lsHz9V4S9ri1ZiarUs+B7OOq1jGNZ1ertd3JbSLUXzSwcqTcZ1OzHpSrsBhq704CUTrAlAjpDjD1Vz2repe2zcDcQZVN5XOI+Aa3WxvUS7yBPwfM53v8pYtiDavpea82Vyy2+UtvYqZzgfwNHS8wzHy4kmL3lH0KIx3JuAzBj4H6HOw3MoCbwhf1wuR1IrgfsnVWs+WwMNxX1UY90tCGfVbYAiKYinVUjsJ6IFG+5jQrq9O0iKh9RtgRazJQyPhkDXjidxm/2YCJmmw0QHg6PZLu9LFGaploOMsCficgc8AfE6gZmb5ht+ivqi3mA4MxFVePA7g8SUFHqtCuIpB5wUD4MdBO3ysk4APGPwuCK+onPFsPBdrAKhuLn0VwKvOM+pGw+e/lJnmCfBsBr6E0KzffaZxsD4c+B0CvdYl+CVPY9m+/weJ3V2pB28knAAAACV0RVh0ZGF0ZTpjcmVhdGUAMjAyMi0wMi0wMVQwMTowOToyMyswMDowMKpe170AAAAldEVYdGRhdGU6bW9kaWZ5ADIwMjItMDItMDFUMDE6MDk6MjMrMDA6MDDbA28BAAAAAElFTkSuQmCC;labelBorderColor=default;" parent="1" vertex="1">
                    <mxGeometry x="1080" y="-2520" width="61" height="61" as="geometry"/>
                </mxCell>
                <mxCell id="l--R4v7ilEp9Fyo1Bglz-10" value="" style="sketch=0;html=1;dashed=0;whitespace=wrap;fillColor=#2875E2;strokeColor=#ffffff;points=[[0.005,0.63,0],[0.1,0.2,0],[0.9,0.2,0],[0.5,0,0],[0.995,0.63,0],[0.72,0.99,0],[0.5,1,0],[0.28,0.99,0]];shape=mxgraph.kubernetes.icon;prIcon=deploy;labelBackgroundColor=none;fontColor=#FFFFFF;" parent="1" vertex="1">
                    <mxGeometry x="660" y="-2790" width="50" height="48" as="geometry"/>
                </mxCell>
                <mxCell id="l--R4v7ilEp9Fyo1Bglz-13" value="ECR" style="sketch=0;points=[[0,0,0],[0.25,0,0],[0.5,0,0],[0.75,0,0],[1,0,0],[0,1,0],[0.25,1,0],[0.5,1,0],[0.75,1,0],[1,1,0],[0,0.25,0],[0,0.5,0],[0,0.75,0],[1,0.25,0],[1,0.5,0],[1,0.75,0]];outlineConnect=0;fontColor=default;gradientColor=#F78E04;gradientDirection=north;fillColor=#D05C17;strokeColor=#ffffff;dashed=0;verticalLabelPosition=middle;verticalAlign=middle;align=left;html=1;fontSize=12;fontStyle=0;aspect=fixed;shape=mxgraph.aws4.resourceIcon;resIcon=mxgraph.aws4.ecr;labelBackgroundColor=none;labelBorderColor=none;labelPosition=left;" parent="1" vertex="1">
                    <mxGeometry x="906.5" y="-2861" width="41" height="41" as="geometry"/>
                </mxCell>
                <mxCell id="l--R4v7ilEp9Fyo1Bglz-17" value="" style="endArrow=none;html=1;dashed=1;entryX=0.967;entryY=0.007;entryDx=0;entryDy=0;exitX=0.5;exitY=0;exitDx=0;exitDy=0;exitPerimeter=0;entryPerimeter=0;" parent="1" target="l--R4v7ilEp9Fyo1Bglz-13" edge="1">
                    <mxGeometry width="50" height="50" relative="1" as="geometry">
                        <mxPoint x="942.5" y="-2860" as="sourcePoint"/>
                        <mxPoint x="927.0799999999999" y="-2701.943" as="targetPoint"/>
                        <Array as="points">
                            <mxPoint x="927" y="-2840"/>
                        </Array>
                    </mxGeometry>
                </mxCell>
                <mxCell id="l--R4v7ilEp9Fyo1Bglz-31" style="edgeStyle=none;html=1;entryX=0;entryY=0.5;entryDx=0;entryDy=0;entryPerimeter=0;fontColor=#FFFFFF;" parent="1" source="l--R4v7ilEp9Fyo1Bglz-20" target="4" edge="1">
                    <mxGeometry relative="1" as="geometry"/>
                </mxCell>
                <mxCell id="l--R4v7ilEp9Fyo1Bglz-20" value="Build and Test&amp;nbsp;" style="sketch=0;points=[[0,0,0],[0.25,0,0],[0.5,0,0],[0.75,0,0],[1,0,0],[0,1,0],[0.25,1,0],[0.5,1,0],[0.75,1,0],[1,1,0],[0,0.25,0],[0,0.5,0],[0,0.75,0],[1,0.25,0],[1,0.5,0],[1,0.75,0]];outlineConnect=0;fontColor=#FFFFFF;gradientColor=#4D72F3;gradientDirection=north;fillColor=#3334B9;strokeColor=#ffffff;dashed=0;verticalLabelPosition=top;verticalAlign=bottom;align=right;html=1;fontSize=12;fontStyle=0;aspect=fixed;shape=mxgraph.aws4.resourceIcon;resIcon=mxgraph.aws4.codebuild;labelBackgroundColor=none;labelBorderColor=none;labelPosition=left;" parent="1" vertex="1">
                    <mxGeometry x="537" y="-3098.75" width="53" height="53" as="geometry"/>
                </mxCell>
                <mxCell id="l--R4v7ilEp9Fyo1Bglz-22" value="Workflows" style="sketch=0;points=[[0,0,0],[0.25,0,0],[0.5,0,0],[0.75,0,0],[1,0,0],[0,1,0],[0.25,1,0],[0.5,1,0],[0.75,1,0],[1,1,0],[0,0.25,0],[0,0.5,0],[0,0.75,0],[1,0.25,0],[1,0.5,0],[1,0.75,0]];outlineConnect=0;fontColor=#FFFFFF;gradientColor=#FF4F8B;gradientDirection=north;fillColor=#BC1356;strokeColor=#ffffff;dashed=0;verticalLabelPosition=bottom;verticalAlign=top;align=center;html=1;fontSize=12;fontStyle=0;aspect=fixed;shape=mxgraph.aws4.resourceIcon;resIcon=mxgraph.aws4.express_workflow;labelBackgroundColor=none;labelBorderColor=none;labelPosition=center;" parent="1" vertex="1">
                    <mxGeometry x="392" y="-3139" width="44" height="44" as="geometry"/>
                </mxCell>
                <mxCell id="l--R4v7ilEp9Fyo1Bglz-23" value="&lt;span&gt;Deploy&lt;/span&gt;" style="sketch=0;html=1;dashed=0;whitespace=wrap;fillColor=#2875E2;strokeColor=#ffffff;points=[[0.005,0.63,0],[0.1,0.2,0],[0.9,0.2,0],[0.5,0,0],[0.995,0.63,0],[0.72,0.99,0],[0.5,1,0],[0.28,0.99,0]];shape=mxgraph.kubernetes.icon;prIcon=deploy;labelBackgroundColor=none;labelBorderColor=none;fontColor=#FFFFFF;align=right;labelPosition=left;verticalLabelPosition=top;verticalAlign=bottom;" parent="1" vertex="1">
                    <mxGeometry x="997" y="-3099" width="45.5" height="60" as="geometry"/>
                </mxCell>
                <mxCell id="l--R4v7ilEp9Fyo1Bglz-26" value="" style="endArrow=classic;html=1;rounded=0;exitX=0.723;exitY=1.024;exitDx=0;exitDy=0;exitPerimeter=0;entryX=0.855;entryY=0.145;entryDx=0;entryDy=0;entryPerimeter=0;" parent="1" source="Fp9UOHxq7eHYgcfmFOAw-1" target="Fp9UOHxq7eHYgcfmFOAw-58" edge="1">
                    <mxGeometry width="50" height="50" relative="1" as="geometry">
                        <mxPoint x="937.3097499999999" y="-2987.958" as="sourcePoint"/>
                        <mxPoint x="937" y="-2851" as="targetPoint"/>
                    </mxGeometry>
                </mxCell>
                <mxCell id="l--R4v7ilEp9Fyo1Bglz-33" value="" style="edgeStyle=none;html=1;fontColor=#FFFFFF;" parent="1" source="l--R4v7ilEp9Fyo1Bglz-27" target="l--R4v7ilEp9Fyo1Bglz-23" edge="1">
                    <mxGeometry relative="1" as="geometry"/>
                </mxCell>
                <mxCell id="l--R4v7ilEp9Fyo1Bglz-27" value="New Image&amp;nbsp;" style="sketch=0;points=[[0,0,0],[0.25,0,0],[0.5,0,0],[0.75,0,0],[1,0,0],[0,1,0],[0.25,1,0],[0.5,1,0],[0.75,1,0],[1,1,0],[0,0.25,0],[0,0.5,0],[0,0.75,0],[1,0.25,0],[1,0.5,0],[1,0.75,0]];outlineConnect=0;fontColor=#FFFFFF;gradientColor=#F78E04;gradientDirection=north;fillColor=#D05C17;strokeColor=#ffffff;dashed=0;verticalLabelPosition=top;verticalAlign=bottom;align=right;html=1;fontSize=12;fontStyle=0;aspect=fixed;shape=mxgraph.aws4.resourceIcon;resIcon=mxgraph.aws4.containers;labelBackgroundColor=none;labelBorderColor=none;labelPosition=left;" parent="1" vertex="1">
                    <mxGeometry x="862" y="-3098" width="54" height="54" as="geometry"/>
                </mxCell>
                <mxCell id="l--R4v7ilEp9Fyo1Bglz-34" value="Webhook Notifcations&amp;nbsp;" style="sketch=0;aspect=fixed;html=1;points=[];align=right;image;fontSize=12;image=img/lib/mscae/Notification.svg;labelBackgroundColor=none;labelBorderColor=none;fontColor=#FFFFFF;labelPosition=left;verticalLabelPosition=middle;verticalAlign=middle;" parent="1" vertex="1">
                    <mxGeometry x="1042" y="-3228" width="39" height="39" as="geometry"/>
                </mxCell>
                <mxCell id="l--R4v7ilEp9Fyo1Bglz-37" value="" style="edgeStyle=orthogonalEdgeStyle;html=1;endArrow=none;elbow=vertical;startArrow=block;startFill=1;strokeColor=#545B64;rounded=0;fontColor=#FFFFFF;entryX=0.951;entryY=0.014;entryDx=0;entryDy=0;entryPerimeter=0;" parent="1" target="Fp9UOHxq7eHYgcfmFOAw-1" edge="1">
                    <mxGeometry width="100" relative="1" as="geometry">
                        <mxPoint x="1063" y="-3189" as="sourcePoint"/>
                        <mxPoint x="654" y="-2915" as="targetPoint"/>
                    </mxGeometry>
                </mxCell>
                <mxCell id="l--R4v7ilEp9Fyo1Bglz-38" value="" style="shape=image;verticalLabelPosition=bottom;labelBackgroundColor=#FFFFFF;verticalAlign=top;aspect=fixed;imageAspect=0;image=data:image/png,iVBORw0KGgoAAAANSUhEUgAAANwAAADcCAYAAAAbWs+BAAAABGdBTUEAALGPC/xhBQAAACBjSFJNAAB6JgAAgIQAAPoAAACA6AAAdTAAAOpgAAA6mAAAF3CculE8AAAABmJLR0QA/wD/AP+gvaeTAABASElEQVR42u1deXxU1b3//s6dLJCERWRV1iKQzCRisSr6quBSl+prfc9EMmGZSRBX7PZaq6/WtNbW1tYuLhWETAjMBJO6VKt9VStaq9aFCkkm7JpEERWVJYEsM/f83h8zQDK5d5Zkljtwv58PCjN37j33nPM9v+X8zu9HMGHCIFg+/bmsQ0P2nQJJEyTzeBCmEcQ0ABMIPJ6BHJfXnp/O70jmMJtIFuyF7pEZwDSSNEGAxwNiGgjTwJjA4PEApgAQYW6hdhRYsurrS9R07QOLOQ1MxAPFc+uG5HX4xsOPaRCYIIHxBDENxNPAmADwFEgaeuR6BgFggGN6jJLTjNEAPjYJZ+K4xbI5KzL8HcNGq5lyPKmYBsI0YkwgIcaDeRqAaXzQP5JBR+UTBWl1jFDxUqZ840zCmUh/VU+lCQrzeAhMA8Q0QE5govFgTPN1YTIsrAhJx3hDADMnva2ClfEANpmEM2FIOKa4skVe5oR+qt4xR8RMSOSCACY6qvAFGGW895GCx6fzeJiEO14cEWqAUILF+IAjgqdJYAIB41iC+ql6MCSfIoJgEs5EchwR00CYwCzGBx0R0wBMggyO4VEfxDG76bh0QTONMwlnInYyWesy84Tv1DB7TtNx0D+8tyMiQCROT9EUL76ZEs5EWFVPd8/JP4UlCQCgPrbTCc2nKFRKmIQ7wVW9RO05mdCUcGQS7niCsfacTBxvTpMTbmYstXnGStBEABMl5CTBNAlEExmYCOZJCKgsJzJjWgC0AjwUoFkA8gwn5TK6R1Zvcu43JVzKpdMzQ2X3ockqq5OIcCozTQIwGcDEI39URvYRUUSgoB/ihNf1NjFxPYieqG60b+2tOuccVK8m8I8BzDTMpPUPGQ8gLQmXNit55bwNltbPPh4vWZ0kICYFCEQTAe5NqFGm0hUTfExUUd1UujaszWqty8yF+gOA7zLCIk3gC6u8ZRtMwg0Ci2etGWVRsk6VkJMIPBlBtY9AkxhHVT3T5oyvB+IGV7N9RSi58kgtqmoqfSf0cmeh5wJI1AEYk2LHSVm1t9RjEi4aYtk8RQrjm73VPICnAMe8eiaSglUur/06rS+cVs+jCon7VzUt2NLPBi5ad6oqxV/BsKVs0jL+p6rZ/pt07HSRdP2beTaAnwBYCuBSAAUm2ZK+ym73K/5vh/n+//wsqytR2W9+rGpY+KFgywUg+lfqJBynbbRJ0glHEi3mlE+t3QaisrUNiw/pE86ygYAzW22nXa/1/WpvyRdDWLkEhBdTQjiRvntxIgXPbDXnfCrtH75Tyz4LJRSARjD9QEvKAcDD3pKOjKy8b6RC0hHDJFy0mDh2wm4AfgP1wQcM3AfwZeSnUzijeySrNBVECwj89+OMbXVTvDvui/LqHQCmtORPP0vvgpUbrzqs+nuuBLA1yW+Stipl0r1+lS/P9zutng8RyF+RSrzCxH84lJ/xZ40cGfsR2AB+zGGrXUTMjwLISlK73gShHYyLgyw5HCcbd0Nuz4jFlaiUUV6/GwBIKBcD0JViNVuXfF6R775MCnoHwMlJskFNCZcmamUXCC4Gn+Hy2udVN5U9ESkhTXCP6vqkSFrJXwdkORhfBXAQRN8HaP8xAYW3APxzAPd+2q/4r3pg5xXdMczqvcGnzo906eotZa0seQmSFC3KwEjHFFe2SbjokWzHyUcA3YlMyyRXk7282lu2KZYfu7z2NQTcn8Al29XTLW3VW8qeA8TPQPQuCT6DGCcDmADgdQJfCMhbAJwVgyTYx4xbXd7Sb4ZzkmjPajoc/Nvc5dOfiyjdq7eUPQdKYB+FIjt7nEk4g0k4Bt5iUFlGdvsUl7f0Z653S/ZG+9ulRTVTFxXVHN3gnTR6/G0J8MpJBr7narKXu3cuPLhszjNDAfr35JPHfRU9oovB80DyKpfXfl5O98jXBegXAD4E8F7w//s17tkO4BUQfUtmdE+rbrY/AFDMkodIHgz+dUh79oG50fwmI6v9diQp34jISM8g5pREbjBRKyUuftFHwONSyt9Xb1k4YA/agZnZbXnN6g0AHjpiey6etWaBomS8CGB2XNYDxk3VvSI9Vm686jCAnwFAJSo/rsRdc4+QJagOXqx1o2Vz6obLbn+239LdHa+gXglqO5ovSPIiAC9H+s3Kjdf7HPnrbiQhXkv0Yi45PQmXktAup9VzIYBEeQB3UzCNGoPeYCn/UL2lbMdAbuSwen51aJjlrvo3SjqPfjbbNUL4smoZuGyA7fuCCX8VUrirmhf81agTY/Gs9TMURW4L/vNQT7ec4N658GB041u7AuBlCdZebq722h82JVw0qxOJVsEyUbcfzeBXGPy7au/Ctwepb7+Zd9C3CMDKo7bKJud+gK9w2tYvJ+ZKBkZGcatuAp6UhKopJ4/fUPnyfL/RJ4bo6mxDTpYKQAGQk5ElFgJ4OLp+U25n+Iuj7JsBSor0lHApseEOs/gAQLwZ1wPQH0E03eUtKxss2QAA/s7nGXQjwCGaALGrqfQPftV3WvDoyke60gx0t1/xT6ry2kurm+wvpAPZAKC6xdkFoLmXKnRHwMaMjNXeki8Y+F1iJZwwCRct6r0lPWEm6WBWvQVgftVh9VwVj/tVbatoB/BJhW39FVrf12xd8nmVt+zuyd7tEyEwL+jJ3MSg95n4237FP6naW/rjtQ2LPzXSoC+bsyIjqknN/Fqvf57i627/TrTPyMi2/J6AfQmkXFp6KVN23IVArQw+NY63zATQKElcu6Zpwa64DSvjWQn+LoBn9a6pRKVEI14B8Eo6DHrXoexh5QWei2Rm9/PhnCwk+Fkw3dBLrNzmmFXrrt5a2hLZgVJyoNzm/gOY7krI/CFTpYzRjuOWOA/BgzndI86LJ9kAQErxNwAXVhTUnoHjBDVbl3zus/ifJV/WfeU2z/eL59YN0VxsOnwvAui9lZInFKwrLq5ToppcglcBSEilG2YyCRfTgyXFay/uEIPKXN7S5TFFUkQ9ORdsD6iI8js4jrC2YfGhyd7t1zMwMvegf7vDVrtIx45b2dd24vPytvjujOYZqxoWfkjAC4nRkDAmWuKbhAMgafDRJgzsgRTnJ/z0L8u/Mahk2QzPyccT6SpRKV1N9juI6B5idjmtnufLC93T+rx6RvevEVKthpl+7LDW2qMUResS1PwjpatMwkX1YBqchCNgO1Q6l+HPjNZ7NuC2CvE8gKyeDCzGcYiqptJHmLkUwPks0Vhe4PneEc9s0Mb7Yz8TCuxaUlB7UcSbqyJhuUcUVsebhIsSfv+gJNwXDHoZCl4iIe4IRmgkDJYs5SUEIliu679FcHygurmsniRfCZBkwq+d1vVPls9cnQcATJih8ZNMQfyEw+qeHZbM20o/AmhnItqssjQJF/WDuzrbMPDo8pMAXkbgiYD8YaLbunJjyQEA7wCYVZHv+SqOU1RtKXuRIS8E8BnA3+CM7Jcds10jiHGmzk+GAfTc4lnrZ0TQK7ckRsSJcSbhol1RW5xdPMhKlgw86PIubE5KgwmvA4Cq0DIcxwgEDMgLAHwKpi/Dl/UKgBlhVPvxiiL/6bCu+0qY23YnZkjYlHAxddjg7LjPMrMtlUlrK+g1ACDGfy+bUzf8eCady7uwWSVcAuBzAooQOeZ2NEG84izwaJwbZAISk+GL0zCAObV5Hlm2AnTOwDqbHgyqeklamfj14IZStq/bfxWAdccz6Wqa7A1LCt2XCkkvBVTHiBgCwiMOm8cuVL7bMrTjlawDE0VHdu1dYMxK0DJoqpSxSQ0xYMeJRVBdMtu6qsn+yVHjn+kanABY01i2EeASxJCDhhjns6AXfF15Bzuy9h8G4/bEzR+YKmVMUorkQFXKnlObtm5LQYuDsYV8adn0dcNOBNK5vGV/A+OWAfw0O9HzKx1LV6VWwkllwBIuhmQ4cVwg+N0jkykjS7kSJwhczfYVDH7IaO2iNAxgTrGE8w9UwmUuLaqZmvQBZmrs1fr/womEQz3/gySlT4gBQxyzXSNMwkUJvzJglRJSZlya/Pb6m3rZD/P1kqQej6hucXaxQCmAQ0ZqV7B0lUm4aBDMJLV3IL9l5ooUtPdTAJ8E/3nSe7YZNpxAqG60b6VgzhWjQLI6ziRcbBiolDszmBsl2Xrl7qOdJ3EBTjC0w3I/AlmZjUG4NDv5bYR6ay2AbuhQJNwN8IaBpIEbhOF5uNdydTaAB44fOjGVF3jsTLgCoAkgHGbmfxAJj6up9AMgcFrfaa29A+B6Q0iMNNv8Tr2Eo0HlqDzXYVu/MKlTEny4lx13+vEkvZbNqR8mScwHyA5gHhhXEOhesNzqsLnvOGKzdhQoTwLcZoglIs08laknHA/u5Dcx37d41ppRyVsfyNJrtGdGk5U4XbByY8kBQfJDjbceSkz3tBbMWFOJSlFfX6ISsMoQhEuz0lUpJxxj0Ce/xypK5sokNvm0Xn/P6Mw+OO14IVzlvA0WMN0aZrVZ2GI7bTkA+FXlMSO0Od1KV6VewgnZEgfa/pfT5r4x8SrXM0MBnNrXaMfERD9zadG6U8sL3dMSHTT9Uft2YiAn/ASnyuK5dUNqti7YjkC69VTDVCljga8zTnUGmH7nKKhN6Fm17q4DZyAkcl7GN/MYiufWDSm3ev7bafV4nFbPTl9Xe4eqig9Y0i5fl3+/0+puLbe6HYlRKa/3AYFjSGEwIq9dDWad5n+k3gVgSriY4N658GCc8hdmEvHjjkLPrIR1FtM3+3/GcYmpLLbWZZYXeL6Xd9C/m4E/ASgF8CX0OxpDExiUMIcFM0fMrszg4Nk3sSXV8yfdSlcZIlKC41e+ajRJvJiIsK9FRTU5IHL2n6AYMth7Owo9s/Lgb2TCr6NID/6+y1uasDwhU5p3PA5gc3i1MijVyRj7cZZhyniTcLGoBRTX8lWnqKrlH47CdYVxHVS/UglglIZK0zNYspHEaxzmVHWo08ZRUHtLosaiEpWSmZYjTPoLhhgGAEKVe4wwfyRbxpmEi0mNiXu9uFNJilfL890Xx+NmzgL3N0D0Xc3BFjRgdbi4uE4hibUATopxgbqvIt89OVHjUd1c+iqYf6NvN3FW4N35M2MQjk0JF6Ph25KA2w5nQX912mpvHcxNym21V4PoMd2+kgNXq/K88msYWJRNlhR0bSLHZHLzjtsYtFrHBFAAgPzKfkNMYk6f8C6LIVpB1IrEFGi0gPn35TbPfM6wLIulAuqyOSsyfF15dzHz7WEWpm6hHt40cNtVDvjkOIETGjhdiUoJL5Y6beueIknDQaJdArkgOYWYhgNAtkU52InUFwNiyHEm4WKZPBIticz2yIxvosd/vtPm/lFGVseqoPtbX6oVrL/c1yV/C2Bm+HWCng5W2Bkoa2YMfJJRUsbO1bTwL3rfPewtPuS01h6pIZdCwglTpYxt4inJqPl9Epge9nXl7XLaav8nNKU3ADis7tkOq+cvTPK5iGQD9qmg2wc3UZA5iJ8b4FwaMQyw+Z1OlXQMIeFWe0u+cFo9BxFddqjBYiKY72Om+5xWz3sAdoPQDcZUBPa9okEHC1y9pnFwlXpoMHk5Ge8YYewY/BcC3ZziVpheygGgNQXPnAbgq2BcHDXZiP8tpJjrarQPvhYc0UDrnHcqAk8ZYdB6BO5Eis/HpVPpKgMRjpJJuDcGkO/+AyL8ICOr45zVWxY0xaMRGaq/fkCqIeGeQNq+1MPTWLZPIfENAAdTNnPSqHSVkSRcS/IsD9qQkX2wgEFlAHugrdpJAI0grADzNzsKLFOrmuz3RXK4xIKVWxbtAeEXkdRXAE8D9F3JdDEyLWNcTfZ7jDSJVjUt2EKM61LYBGVkU/cY04aLbZlqRZLObTOhM0gcT/APHFNc2TInZwxUmc2ZPfu71Oz9wVrkASSogkFHvuXe3Gb/bADX9HbIMPNaKPRERmb76/EkeaJQ1WyvcxS45xP1KlGcRKhkGQdgj0m46K3vliSSuyv0o2C1z6SfYq6vL1GLrXVlufDvBzAThJWyo/tPwfakFw73fAc5WecAmJ10wgVKV71rEi5qvqmtlCQNl5mlkQYhKEmvQ5qjusXZtdS23q6y/DcCmZeTZxsp6XFMxzA2nDqIHJUxCzgafIS/CX17DoyfJn/BTo/CHoYhXDDn46EkjY5JuARi8pjx9wH8dlIJlyYBzEbLHJwkG4qGm7RIHCpfnu9XiZZikEeXYjPLhUm4AaxTLUl60ASTFolFTZO9gYH7kzh3TJUydrUgOdEmHOc8JCZ0Jpe/8+cAPk2SDWdKuAHoBS3JeQymm3RIPKq2VbSD8bvkjGl6SDgyUmMcVvcCAtUm41mKIieualj4oUmL6FCR756sCsoXwCwmjAHTKIBPAjAc4C8Y9Fa1t/S3oWnnFxXVjLGoljYACU+YyxndI6s3OfcbuR8thmqN5BaI5KwBfp84E8bIq2hMghXUniEFLmLmeQR8VQLDCMFEJ8f+c3TdJuBaZ4Fnl6sZf+59n7UNiz91Wj2vAUh44ZVg6SqTcNEiE9yatBgm4ksBY0TcG0fDqBtH8N8C0LUSPB0cmwpEJOYCfQkXxD+TQbhgtMkWI/exoWy4lVsWfgwgOSFNJC41KXYMTqunlODbBeB/AR6Qjdu70EnIN68n4x3SYfPbYNsCxJSkvTgCT01k0th0QrAgySMADR3UZCLaqCl5VOX9pEzmNNj8NlzJXE7mQVQ1sZmv0gUHcjpOxuBP2+9XO7o0D9TmKuKjpMwdAZNwsUueJJ6LI14EMJ3ohKvZXLIbgHeQt3lI74TDw96SDgCdSVisTZUy5k6jpKZa+JJjSnUWTADArRh4KNahDF/E/baEz7V0KF1lPAknkxbeBQDIs4xlk2uAy2t/SUJeCOC92BdJ/vnK7fZIWZgzkvAaJuEGoOclNZlQu+XAeJNuAazxLnyN/J2z9TIu62DbIc74dbgLgnXthEk4Q6qUySUcCXm6SbVjqNpW0V7tLV0qwGcDiJSZ7IBKKOmTikID/i45JUnNH1E8t26ISbgY0JGvfAQgefvfAmcAQEX+eptJt2NY7S17y+W1zwPJqxh4Fv33Rz9kKS+rabI3RLqXlHJqsto9/FCXoR0nhvTQOa2eXQjkjEwGXlEUv1NVLXe4vPbrTKppwzHFlc15mVbFj5EQ1JXTPeLtB3Ze0R3Nb8sLau9h4juSZJIsIGY/A2cwMJtAu13e0uuN0o8Wg45vSxIJd65ftVxNxF8GAEe++7TqLWU7TIr1RdDlv3FgZgKflzybhNdzH2ki3zZSPwpDjm5ytwYyCFgOptnOM+pGk6DVTqs7KWFfS23r8yvnbbAcz0Qtn7k6D8DZKZxME0zCRVqkJCU77fkUAALd/isBFAK0zpHvPi3RD1VZvah1755XHLNqp6QLgeyF7pExjaVlyJVIcgavEIw1UlZmQxKOKLl7cb0k6xIAIwCcTIKeSnQUCvm71gCcQQpvcto8C41ONmdB7dlZkp6P8WcLUm02GSkrszElHFFrih59fq+/FzgLa89P5MOqtlW0dwtcCuA9MNaWWz1/Naq0W1q07lQmfpKAt6L/Tc1UAF9Pddu7LWKCSbhw8CcxC3OojOtjfweSs5bb1n8tUQ/0NJbtU1XfJQA2MXAZKdzksHq+ayQ1aPGsNaNUVTxDwHgJWR31MKqWW5H4Yo0tAJ4BcA8zlwB4ud+gSuPYcYbcFqict8HSundPJ1LvRVVZwEYSHoB+7vKW/ilRD1o2p264r8v/JID5wYHZqAq+fk1j2cZUdoDDWjeOyP8CGDYQXnQ12S+JiqTWukkK/NviaL8dYsArgM0AbSYpG9WsnobQlApOq+dRAEv7qky4wdVsX2GEuW1ID1nly/P9Tqv7I4AmpbgpipD8IINUgB8tn1n7etW20oQcNVm5seTA8unPXd6Rub8GhBIG5ghJbzmtnnWKIv83FflXFlvrJgn4X2AOlEYm0OPhrr/JWpd7SPhmkhQzBXzlDBoQ2Rj0PgENDDQQ0MBSbp6yZceuSlRGTlFP2NuvKAwZJy2iYV3STNRCjEkpbwfoIgSOlgyBhX8DoDRRz3pg5xXdlagsbbHO+IiAbwdV/sWqSteUF9T+jkj5zWpvyRdJkWy22nnE/scYGHNMxeY/Oq2ea0H0JFhuY9CXAC4goplgzOyEf6KQgcwnHJ3y1AGiJjAaGLxZAA2WbEvjyo0lBwYxcfYihHEMOsVUKSOg3OquYdAigzVLArLQ5V3YnPD3L3CXMWFlyCnsDgI9RFB+lUjilVvdyxj0IOIY4c/AHgJtJMALyGaVaePU5u1bopJaMfcbrQt5+l9d3rIrTAkXdmaLFoLhTs4IQLkRwPJEP6iqucztsK7bTqAnABxJXJvL4NsY/hudVo9LknhgTdPg6oz3xtKimqmqalnBwCWDuE0HAoUsGwDeLJkb/N1odO9cmJwKqULZi37FkUynSeSVyuauYKZVBmza3smjx0+ofHm+PxkPW2rzjFUZ6wHM05a4eJYlPzJl7ITnB9qm5dOfy2rP2n8zge+OIa8JA3gfwGYibpBAA0PZvKbp2vdCc1MmExUFtWdI4n+HjpnLax9jEi4MlhTUXiSIXzRi2wT47NXesreS9bzi4jolr9n/fQZ+AiBTbyEA6DEQajvylTfr60vUyBJt3alSilJmfAtAODunHUAjMzcIITYz0EC+w41V2yrajTY2S4vWnaqq4oPQxaEDluxIx4hOaJXSQv5WCWPWSZckzkEMG8CDRZA891YU1P5NEq8DUKBx2WiAbwHjltxmf7vT6nkbhDeZ6X2w3A8ARGQB0WiACwD+iqrSGWEXXUYdKXx7VaP9/VRKrXCoRKXobQcOOXzS3o6s/f0EyzDpGw+g1SScDoZ2j/qgI2u/hBE351kmNRh32ZwVGerh3Al+UocKFr8G4RcAxob5SR6AC8G4kMAA9eIUc1TKDRGesmS3LwzUFy8z5BypyHdPbhX0JXjx0pHPHth5RbfT6jmIkCxkbKEJJuHCINhxeyKoOqlSKs+KL6GeGdrT2TFHQE5iolPAfAoJmsTMpzDoVF8XxkGABCgpRgADz3aw5dr6jdf7YGCoAt8X4Le01esQwkljbA0Y/WhIqzEJx5OLi+uUaOykqCbO4YOjSdA/ju5dEQUFEaXAyKaVmdkHb6k2ONmCzqRy1kocTLQXzF8K8VZMMAkXeWK3AHSuARuWMXxbz3jEqRjIQVvGh7nNfh+i2/dqB7CLgV0E7CLwLiYaDcYSAIM5UrSbgG9VeUsfRxpAMn0H4CGahRiZ9/bjIJuEi2KxpVYYNImdKpVJ8SJcfX2J6rR6PkDfU+6NBN4kWewiwbuIsMtH/l3BWuhai9PPnQXrz2LgMkG4hANJgCKNryTQG5Kw4hArjxnBixcN7IXukSz5xuA/x2roxHv7qwbSJFxEvjG3sEF3Lph5WFzfFfw+g3oRjn5a5bX/KZbecjXjTQBvAvjJsjnPDFUPHzxTFZhLEKcCPArAyUS0n6VsZRLvAspLLm/Jx0gzZElxM3Ck//sX8CCivdx/pTYJF1FtALUZdaNQSPbH9137RtYweFBxpCs3XnUYwD+Cf44bLJvzzFBfV/utvT7SVikpVOgZI9pEGLp3RcrOxUWWcFDiG8tI8r0Q6T4ZJvrB19VxPYDRYQlH/W04o0g4QxPuUK6lFTCkFdeZMfRAY3wZLPosLiRSfjTJgNJtRQYgvx3y8chgua3empGWnTv8Jmtdrkm4cM6EN0o6AXxqwKb9c2Wc3eZC8Pt9tSKYEi4EPV3DHBpnJKkj+8CYvmuXpoTD4UC0iUm48Kpb6qMD+mssiHtQtZSW0KKFpoTrheLiOoXA39ecI6z2UStZZmgSDoo4xSRc5MltMDuO29rJ8lS871rtLf4EfUv2jjKCCmQU5Db7S6C7zyj6EK5zGPbqrN4TTMJFmt5kMAlH4geJ2a8iBvpmK+tEjynljswC4HbdngvZiwuaIh39riOTcNHASBJug6tpQV3iyIz3+1LQkrZ2nNPqvnRZ/tq42EwOa20wQa9ux43rL8yov5RjaRIuEpTU5agMxRcqLI5EHlMJVZ8ZMi0l3OJZa0YB5PYJZUu51b1ssAl1CfhhhEs0Tk4Yc2vA8ITzyxRlYe4LlYGyGm9JW2I1p5DqoyI9PZVCyfwlgFEAhjNohdPqedZpq504MEnpuRBAhHha1ipRpUE4MgkXCTlkMYCE429Xe+3/l3j7MFTCpZ+nstxWeyaBnSEvdjmYmwYi7QhRlbnSIByZEm4geNhb0gHgs1Q9n5h+7vKWPZgUWksRYsOll4SrRKUA8yM682oYg1Y4bbXPR5vOvcLqPiuYpjDSKI0zVcq4Lvyp8VQS6JdVzaX/m6zndVvU0L24tCJcm23mMgbmRFCbLyZFeh1W922VqAw7/yRElEUc+6uUgjS3BoZUWOtOMgkX0bRJiePkripv6Q+T+UBPY9k+APt7r8iBcCbjo8JadxIz3x3lUjaUQPe2WWf+o7xo7UytK5ba1ucDfFWUj89dVFST02fOsE6EkkytpzJNJFySHSeEH7m89p+m6HV7v6uiHs6dkA5jxPDfC+Dk2H7D57GqvOuwum8LLV7ih/zfWOankJkh0Sba4V2swCRcxIFJ3taAj4iXuprs96TwdfuoldJCU4w+Pg7ruq8wUDHAnw8h0L15zeorR6RdeaF7GjGujW2S+PuqlTrxlGA1pYRLi3K3xGhJwpGBAyT5mqotZSnNhUnA+9xHNTL2qYFKVIpW0EODXbwZfB5U5d1ym+culpgR69wkor57caqyF0r/WSNTHG2SJvWlqTXBp3R2M/hK15ayTal+U8lo6Z3VjgZ5EDXhjhLraUsB+kqcbjeEGb8aoBrUR8Kpmb69FtWixWxTpYy4KmSLBNpw/DbDcma1N/VkAwASMm22BiqsdScx6B5D9FtItMnahsWHQoLBg9eRSbhICJYv2p+AWz+ZkT1sXnUUeT3she6R9kL3yGVznhmayHeVIXtxEsY9+S3J//NYHSUJJJxG3KbxNr/TRKUEENiLGxHHAbp/knf797XKJTlttRNZohyEKQQ5FqBCSJwCgHxd7XBaPYcI2M2gJoLcxCyen9y87e14lF6SFn+LUC2MYMpXgjFtuHJb7ZnMfJ1R2sPamaj3ov9e5ikpXhjSA05r7VMAfyMOt1JBvNzVVPbHWH60fPpzWe0Z+yYJojMkeD4RXY1egxyof8aryS/+ONgqqU6r5+Nj9+bDLq8910i5/StRKVqtM14HcLaBCPdWtdd+dt9+dD8H0OUhl/ome7dnx7su3XGlUgZ6VMZja8BHDHusZAMCqdert5TtqGq211U3l93YUWA5hSV/ncB/P6bS0I/YInc4re67i+fWDRlEO3vZrDR0UdHa0YZSNawzyo1EtkD/c7TxlBkt1oKUla5KH8LRoB0n3QS6pqrZHpfzbPX1JWr1lrLnqrxlF4PoPIDfPkIQgH6Ue9C/saKg9owBqh197LgMmRE3tdJpW3dlIIpj4I4SAL8w4AQZ2y8wWju8C5TCaJO0IRzToCRcJ8DfqPKWPp2ItrmaSl+f7N1xDhF+AOBIvsp8SfyG0+ZZGPu79iUc4pQyz5G/7hyweEpl2ey0enY5rbUPOKyeyxxTXNlR25hQf2YUR0kIsuyFnhF9u01n81vxm4SLuH6pSsuAuQoscnnL/pZgu0ZWNdnvg8DFAI6U180Co8Zprf1RTA1m6pvBKw6Ok+XTn8siIVYDR4vuTQP4FgL+SjmZnzutnqedBZ7rw51bc+av/zLAy4w6R4ayMi5EK9KWcEwm4SJ6Orh7YBKOcG+V1560AhWuRvsrEvIKHMupQQDf7bR5oj91QKGxo4OXcB1Z+++EdiHHoBqMq0B4BMxtDqtns8Pq+UW51fMfR2IcK1EpoPBDvQhrOMiQ7F3Qk3ApjDZJG8LVbF3yOQKVY2LBDu7oTnoQ8hrvwtcE0QIEanAfEVM/c9rcN0bze4XVuKbMC9qSP4jBhiwi4IcMvJrb7P+03OqpbbPN+B2YzzHyHJEhWwPEmglhwZy6WnHp4zQJIKYUByz529Utzq5UNHR1U+mzAP88RLn9vbPQc0FEwmUfbgWg9iLAgAlXOW+DhYkfRXSlsLRwEgMLmLHc6JNDhBxEJUVqnxjQ3CQ3CafVUS0xXPts9Zay51LZ3o6CjEoQ/avXRxmQeGzZDE9Yp0MgqzPv7vUuA1YpWz/bc1vEQ6HHDUJOfvd07dWR4KaEi7Kx0dtxTL9MdXvr60tUJnYC6C1lx/oy8IfIzafei8vJoQcso4Gj0DMLjB/hBEGoSlm1raI9pO+PwLThojQuopJwDDRUN5e+aoQmVzfat4Lw25CPSytstV8P7zfpuzVgUUVMUq64uE4hiWoA2ScK4UTU2btwcqpO0qcX4WSUEo7pCUOtE77OXwD4pM+rMP+mct4G3VhW6ueppJjSzOVuUb8Dg0WDJMHkiLZ0lejqGjneJFykiUvRpVog4P+M1O6qbRXtIPp5yMczWz77eHGY2fNeyCIyJdrnVVjXTgfLn+DEg0ZxRs3wLgjZM8EkXETCRZdqgdTDzYZbfTu6VjKwp+/iy3foZa4iGaI+E6KScJWoFCopq4N7aycaRofmRgFrh3cJkZpKOmlFuFVNpZ8C6Ixw2SdBY9lQqG5xdoE4NL/llz6wzbxcU3tW+p6LY0JUEq7FOuMGYpyPExPK8C3+k6NQKcFgU6WMQnYxInsqVaO2PlOVLhyLtQwMPPMtWtdObtq2G0BPrzePuBdXke+eTMC9Jwi5JIAdAP4E0J0M/KcKy+RVTfZPolEpGanZ/LakWy8T0MLArDDfDzFq21duWbTHYfX8jYCv9zL0L1lUVDNmbcPiT0NUQ+mEpxVHa6JFCu9ikqJ2BYC845BcHQAamXkzgTaRgoZsaWkMZuWONGH09uImmISLxhYitIbLJ8TASKetdqKrqfQDYy4YVA1w7y0BxeK3XA1gRe/ryqavGwaiz8EcJBxNqJy3wVL58ny/1n2dBbUOAJceB+RqBbAZ4AZAbBbwb5ro3fXeQA+MEuhT1powZBIuWkWiNdI5dWI5H0CNEZuf2z38mY6s/fvRO10EYYnT6lEJyGfACnA+QJPAfSaK5YNPPjpFS6Uun1k7AcS/4fQayW4CmpixGYI2M9DQQ3JzMPt0PBfozzQXaDYJF2UHUitFSJknQd+rROW6VB2jD4cHdl7R7bTWvhKSLmIugLncW+HRMk5JTNIiHFv4QQAjDWwG7AOomVluJMJGVcA7rHNk0wM7r+iO53Pshe6R2ZKskngOsSggwMosz9DpT5NwUQ0eoSVSikoCilpsM8vQhLXGXDTkBmKKOT8LCZ4MoE8EjcPqXgDgaoO8mh+ErQxsJkYDkdgkIDf3c2QMEsXWuswc+ApAohDMhQCfTqAiSIxjAMQE4IgiqasOjVg255mhKzdeddgkXLhJ50MLR9FqYn7YYV23tdq78G3jacW0YYCHyiZr2Ci/TpXUYmATgAYwNoPF5lzfMG+8pVb5zNoJ0sJFBBQxoYgYRYB/FkAZx1TugeXCUrv2TwCw0yRcGEzatu3jVuuMbgBZkcwlgnixPN/936lOXx6KmqbSRqe1di+A2JIDaaQ9Z1APJTYrtQSwi4g2MXgzMxokLJvjXQ22eG7dkKEdvgJicTqYCwkoAnA6g0fR0UU03m8mTMJFQsBdXvsBwNOjuHwYC3qu3OpeVuUtqzaQnGaQ520wrtC54EMAO0Do7H2NVtpzChzjmRqnhvVxvzPLzUNFZlNU7vcYUJHvnqwKKgJxIUk6HYQiHPSfBpCS4JT2IXxL/l5c+nkpA/O1BYzpUV6dwaAqh809obqp7OfGMeSwo+8/8bgk/DQ7K2/nEbuivNA9jZmu6HWNhkqJDwc4RePqftfCTda63MOyxyYEFUmgiEBFAAolMIICEjulmVEpBZ7KtCQcc2RPZT9fC9M9Tqsny+W132UMxwm/T72yuhHwYU2TvaGP+jxqQlvr3j0+HDut3V+lJOyO0BVdBHh7u99h6dpUvcm5P55vs8T22DSCejqkKCRCEcCnd8I/lYQQDINmHCaTcNEa7C0D/OmPy61uf5W37O6Uv4Okg31nIWX2U59fnu93Wj0tOBptgpxlMzwnr9xu/6zXXN/dSw37OCC1sJlBm5l589Qx47fpbZYPBMvm1A3v6VQD6iCC6iDX2sDIBchICaL1sD8o3dsYaDAJF9V6itaBjiuDfuq0eva4vPZVKX0JQYd7b2wzpI4qxzsBOkI4dGfxZABHCaeq9KywcJMFaNB0vw/w3ERxcZ2Ss9V/mlAD3kEEnBiFvi7/lGPltDiZJld0wxs4kdFKQCsDbQRqY1JbhWpp6fL529w7Fx5MZQPTknCKKlulGJSS8kdHQe22VJ4KJ8hc7iPiqF1bF6advQNOFBaTAGw88u+arQu2A9g+mLY4ZrtGCF+WDeACZliJxBxu9s8GkMPG0gV7GPhcAB+B6L3AmUH5HiTeU4n2SIu/JVCmyrhIS8L5REaLggFpSd0AdhJhB5P8MkI2kZO6FEsa05tvROjQkcg7+4iRQWRhXjZnRUZPT84sSKVQIGBnMVAIH045uklMx7aMU4CDILSBqYUhWwnUxuA2IagVPdRatW3BnnTQWY87wnUWYHduM3o7E/rwkYD3JbCDwNtB2EEqdkgWO6ds3dZmmHAvwrQ+/5bQrLjDqtxJvaQ5R1kRdanNM9Yf8AyeTiyLGFTo60IBAZkppNTHAFqJAkTiQFxsi4Bo6xJqW+Q4ylKkO9KScPX1JarT6nktILFoB3OAWExix9STx7bG00mQQHw1hICa5/xEhtzFau+4lL7JhJZPfy7rcOaBAklcBEIhgNPBKFIZY+gIRZPjI/Qx6EMCtwWdEi1E3CZBbdIvWkVXZ1uqcoQaCQQTScey/LXjfULZ3bv/VVgma0VvFFvrMnPhP4xjKcZ3EFDFOOrImJmkhfMQEJBILDnojKBWhtqaoaD1wMzMPfX1Jao5uibhDAdnged2EHpvwu91ee26Ncsc1tr3CDw1wRNhHwN7QPgITO8x5HtgvCeI9kDwR1WN9vfT3X4yVcoTEMXFdQqa/df3dYzgrfBk4J0YXPiWH+CPAGoj8Psc+H8bA60KKW0H8kRL/RslEXLFlJmDZxIu/ZDX7CtjUF9PI/ELEeTPToAvCXNBJwLBAG0EtDGojQmtkGhRWLZNHDthd5rYtSbhTMQPjtmuEeyjX/UbBKGGLxTJvBmEdwFqA7gFoFYCt4Go1Sd8baH5UPphi9n3pg13ItpuNs8jYFzfdwDotSpv6X+YvXNiQJhdkCyy1d4aSjYAkJAPmr1jqpQnNBbPWjPKwv6eeCSULS6uU3K9/h+A+R6Nr5szszseN3vcVClPcDA5CjwPk6DXOvIttQPdX1pqW5+vslwF4FxNy4xwaXWT/QWzv03CmSrgGXWjuce/WQDtTPQo+eCp2lb6UaTfVc7bYGn79JNLJMmbCbhcT21n4N5qr/12s6dNwpkIoty6/nSGfBHAyQGOoAGgN5lkMzF9SkRdkHIoCDkMTAToXABnAciNcOtVHQWWG8zIDJNwJsKTbrDoYfCPq71lvzR79sSE6aWMgCrvgs2SxDkA3hzkrV5mIc80yWZKOBNRoBKVosU2s0wwfyuGIvV7AfwZTKtczaVvmr1owiTcALDYWjfJwv5zJOFUAZzCoKDNxp0AfcbAe8y8+bDVstW000yYMGHChAkTJkyYMGHChAkTJkyYMGHChAkTJkyYMGHChAkTJkyYMGHChAlDw4ylNJEWKJ5bNyTvC3UkMmW2pZsO7jvdss8IcarFc+uG5BzEcCF8QwGAZMb+g0BHvbekR5Nw5VbPFwN5kAxU1tyPQMbefQR4CfSaxcev9ykYGEc4rZ5SAh7S+o6BR11e+21R3cfmeYE46oj/ga1kTBetbi59N9J1S4tqpqqq5R2t4rsMNLm89vMH25ZFRTU5Garlg0GM8z4C7WNgH4gbAfl6N9FrkYtvxI5KVIpW28xzmHEZgc8CYAMwCkC2xuUHAHzIhE3EeDlDqs+u3LJoTyLGc/GsNaMUS+bFYFwAcCGAGQBGAMjU7jbsAfAemN8l4C1JGX+v9pZ8TE6rJ97pqxnAawAenuzd/lg8q9U4rJ43KXCiWgsHyd95ajSJf5xWz78AnJ1IwjHkWdXehW9HbEuB+z4Q/U8YFeSrVV77PwfTlpusdbmd8LcnYJxfIeDBKm/pE4NNg76oqCbHolpuBnAjgCkDvI0K4FmW8hfVWxb+Ky5zzua5BIxvEfA1aFdrinrtItAbiTiASgD+A4Cn1Trj3xUFtWfE46YVVvdZYcgGAMM4Y6gzndSkZXOeGQqi8vC9Sbca2ByZx8CfnFbPm0sKPNYBj62t9usW1bIdwC8HQTYgUPDkP0mI18ut7pplc+qGD/RGS23r851Wz8vEeJ6Arw+SbAAgGHxeok98ny6J33BaPYMu7MXALZEv4lsqUZk2p9h7ujrKAJwU/pX46sXWuknGfhP6iiC87cj3fHMAZsKPJfNfgLgWuCcGLfJ1+d+syHfHXMDSYXUvUFl9B8AF8e6pZEzOLADryq2e/x74auMZy6CSKC49rdU2/Yr0kXF8SxQXWRT4b06DlxlCAvXlBesvj4VsAH6SwDbNVIXYsKioZkz0KmRtOYE8AA1NRIMsYUTKDQzWdKgIwhBJGCmAkcxiNsDnAhgdXpxizRLb+k1rmhbsilkxZ7oO4Kwo15BvAfhL2Gkuca8QHGEQ6EwGrtP4fCdB3hexGZmZLWEnW6HnAkgURbvmLJvzzE9WbrzqcPz1Ql4iGZ3a2iwNZeIRxHQSgDMQyK85Ktx8YpKepUXrClc1LPwwvONq3ZVgVEZo3kEi+htDbgDTNoL4nOA7JNkySgicLJnnAvw1gL4S5v2mZqiKJ1AMJbydGRgTXonI3vtPCXiJQW8Bshks9rPCB+BnlS0YJiQNB+M0EM8EiblgPvMI13QJp2ZY/lKzuWR3lCs1OW3urxMrP2TweToX5QhWHwAQkwRaNmdFhq+Lb9D46gMAeUFPUe+F4qKK/PW21VsWNOnds3qL/amIq6+t9gCYNQjHe6q8ZSsHPdOlpoosESi9EWoPneTv7lgM4JF4E667m59y71x4MJprK1Ep2mwzv8Esbw8zyUdIqdwPoCScgwSqWBFmYvcA/CuBjN+ubirRWvR3Bv//LIAfOQs9F5DEb/RyzTDoonKrZ0mVF9Xh7Glf18EagJQwZk0DwL84hIwn9Nz+vfDSkb+Uz1ydJy3ZXxegJXFSKYldTQv/Msm77XxmqgxOHK3rLq+wus+K5c7+zryrAZyica+VYF6l2RghjepoOELmiQC+qeGFeJ6I7tSx5ZYDnNJ900pUyqqm0ic7CjLmEuiXgTmo2dZrKvLX23Q9G6pySxib7YBkusLlLbtztbckqi0rV6P9lfZhlq8CeFKfLHTXsjkrdB0fPd0Hvw1QGFuZf5vXPeKsam/Z+ijI1gdV2yraq71l66u89stFvAekurn0Jwy6R3dhZ7o+JiuHsFzjY1+G9K9mKR5CwBUcuhItXDxrzSjDuhgkbtDSLpj5kfZ85WkGva/xs4Jy22OXGKH99fUlapW39IcE/Fb3FUm9Tk9KEuhGfV7IhWuaS/8ec5veKOnsgGUBAL29zym+zlxN7arYWpcJplv01VL6pctb9t0Hdl7RbUinyRTvtkrdqp6Ey2LwFs1GYIshFH9euWXRnuqtpS0MaKmHQyxKxnVGJJtjiiubSUtVxYeTx0x4tr6+RCXgAe3ZKL9lpHeZNHr8bQAadew/zXFuKZh5HoDJOnRzuZoW/mXAC4G3pEclOPQkL0B2rU/zWF5EwHid226Y5N12R7z6LCGEq0SlFMCvdL6e4JhVOyU6RZWW60jJR3q9wO909O2bw6kQKZNuOVnX6jiYHj1SpTQjW6kC0K7xUpcvnrV+hlHepfLl+X4C/1qn/09znlE3WmPCXaZv1uL+wbappsneQOCXdBb7i7W2jZj4Kv02yTvjGbyRsG2B9gLLUwA0jXEh5HmRfr941ppRIJRq2Dnb1zQvONqhVV77PwnYqHGLU33dw/7LcISDporsJz8dtUdXbiw5AGaX1s+FohrKPs3pHvkYgG7NV+32nauhbJ6tQ9C31jTbvfFoExPpOUdOaiv60mn9G8pn6az4/17jXfhaPPsrYYSrry9RGfwvnaeeFun3ipJRAWCIxiq4ItS9K4l+r93zbCgVrLzQM1fbk0ZPh1bmESQf0HI+EWiJY7ZrhFHe6YGdV3QT6B3tcRanaRhphdoLEcdtYhPx67pfqopNg+wF2tOH/h7v/kroxjcxGjRfRGJkuN8VF9cpAG7S+KpTqr41oR8eYuUxDgSLhmJurF7RRIKlpnQDE/dz96/2LtqJgNs7FLnwZZUbaSEJuMs1nUMjQx0m0CmKwhDvxKs9VY329wnYp6O2ju3972VznhmqtbAHL3493n2V4Aqo9IX2ChSecDlN/qsgNA3r+pqtSz7XMpbLre4/MuinGh38LQBlqZ6Uy/LXjvcBGtE2tLO6acGLgKY9/zsAGvYF3VJcXPd746RR1w6Q4JBx3l542vAsqbPIEz6K47xjhucjoP88C5170nfgJD25Iyz4JGrtxepZyYSpKZVwTDigvZpR2KBSEtqSgIT+xq9PUVcA6NL41TXlM2snpHpK+hVxPbSOclB/FfkIXF77S1rSg8BT87ao/2kYu1RnnAHZZ5yzob/QKlLvHgO1lWm/zld9Cada9LePSI1qH7C8aO1MBq4D4+JIfxJKOMHaopoA3RClYNT5fI2vNlc12t/Q+93ahsWfguHR+CqTLfLGVE7IYmtdJmvvP3Zn9HB12D4k/oO2fWEc+5R1xhmgvuMslTzde1j8cQ1bY/BhHSmQFyILhT7fEJ0GoVqiPqWSUMJJ0pZkknm/boMC0o36r6L0SGSCi99Ccw+Gri+eWzckVRMyj33FAMZpzIr6SId1c7pGrgM0VZsLym21ZxpCwgHDdZjYd5z9vFeXIL6MnDg3a5iOc6ajD1ckdA/R+oWIeLynct4GC4MXGcKGIx0DWZDQVB8cs10j4NO0t9rhO+w+pi+vP12y2m8/SoUKArWh/8bq6Jx2tRRAVUokANHNOqrYiiN/X3x63SnC19+N3h6YD5sJ9LX+CxduBpDyM4CsM85EfbeF2ouUT3Kb/X7NeSfkiGQQDui7CGTmKPt8XX4dySUitumDzz6+FDEcLUqw04RP13b+SM1VRfiyHKxRH5uZ3a5eJ7kZcg0RnR6jGX1rKghXbqs9k5nnanzV2Pskt8Xvv4OJboptQeMFi4pqblvbsPjTFHPudB0i9hnn+voS1Wn17AEwUeNd4nbmrxKVohU4NZo2rdxYfNBprVUROLwa2qYCAH+PsNhMJKJ6jTn7nwgcTUsO4YqL6xQ0+zUHQiHRpN1JdLOWRihIOapOVljdZ0mdAY40Kcqt7vlV3rINybVvtM+8EeiodAtEqrcPxJOanaEq1wO4O1VMc0xxZUNnHwuCGjUcae8T9yecBM4EUB2PNrUUzphBEnnaCy992m8pRm0bgaf2l9B8DnTC7I6gqqn0EWic4nBaPZ8AGJM0Gy6n2X8JgBydlbnfnktL/mmXATxd4/I3qrwLNh8bGBp4jGSS0xUEQ5uu1fiqo7tbXXvUVug6WAI9OyiSnQy6sdhal5kqwomcLL30A5J6Ov+toV+/orMA/Ufc2sS6R8SgAl4Nx9RmnQlzUbz7NmGEI6BCZ81vW9Vk/6S/s0Q7bpJwbFO4fObqPAALBuFNu6q80D0tadLN57sOGtmmCKjtfQaNB7GIEDA+l/wlqSIcg3XGGVu1EjopUr6op4EsKXTHJ5MaCz279sDUMeO39V+0+GWd68fmQL3G8IRz5K87B8DVOlOk38stnrV+BgOXalz8uTzUU3e0H5UhdmjYeDFAYYlbkjERK+dtsBBrH0NhKY4uIsFtkHMHOetTskXgtHouBLRPBRCgOYkPiox/AejQHBypn70s6jYV1J6tdwiaCBuOBIiHTIpnoXPCgMB3BNXmuCDuNlzZ9HXDSIgqLSM08NLC3e+FhXozQKQxaGtcLc6jm9muZvsK4JhnL2zH29wbwfRljRaUl89cfVc06fQGg9a9H38TGoY7A29Vb1lwVNUKBuxGdbC03Ob5A7NmUMCZS6zrzot3oG04VFjrTpLwP6rXdiZya31e7y3pcRZ46kAo1+ibBQ6bu766qeyJgbRp+fTnsjpo/+ow+net1servYt2OmyeV4mhlQPUiqGZv0UgfZ+xJJzDWjcuM0u8DCBf55LmqqZrX+gziWauzgORQ2vM/IFj+ANVH/XyjgyXyhBHwlUtYm0VmQeeJkH66X4Afm27RSTNPnXaaidK+F8FoKOe89uuplLdOERW5O+gkxWAmKpjSUR0BIuKanLas/Y/jv7pKY5gd07PiD+H0RJ+rW/60w3lVs9D8TjuFRfCLSqqySm3eb5P8HsRSDajZ2/8uF+kv2XIImjsmRD4pZqtC7YPtE2HCjLqAbyno1osT2Q6vXLr+tO1VksC9mUMyXtsoPet3lraAnCdTuf+VzB1Q8JQPnN1ntPm+V8wN0LPMxnAnWHfo3FhI4NqdL7OY5JPO62eX0Z7ar88332xRbW8FswfqUeou8Od2K722p8BsEH/57jJ15X7miPffcVgUl3oqpSKz3+lo8D9hQ5LM6XAyQQaC8bZUHEea+w5hODpKq/98X6KB2pv0X5BMaiEOfX1JWq5tfZ+Bj+o8fVpH9hmXo4mzWj8ODgSpM47oWawmbcYuI+AUg1VzkKBjfAfxnK/rCz6pqPArZ21S1AWMU6WwFgC5jIwF4wIXjv2uLxlf4toTEP5noT/Emjmq4EFwA8UJeNGp9XzNxC/xBBbQOrnAnRISh6lkDKGJc4F8aV6yYN64dXJzdsfjdi3KpWTwpug6zGmr5DAs+XW2u2A50UJfhUsdjP4C0XhTil5lGAxVRLO1LuHJYz76xHSMS0YsSW2JmB7l2BH/5XJcxGD8jXuvycz++CfB22gZue6fF3td0HjhLUMxCLGnXAB28Zn1yoVoNDAVeRjK3HZJqfV8zw0nEwMvm7ZnGd+GgupGbSGSJ/djJgqvjSSv+uGaC5c7S35wmFddzVBbIDO9hECWdmuAdM1BAZYBNtDkMzRNuxD8tOCaE5tV28tbSm3uq9m0F8RRoBwoK7ADALdBGIQAJYEAoEpfLOSkQi2EX6ar1X4gXW2AgBatXLj9b7BPjg48R7U+friwaTn1rfd/BU6SURfWdW0YEucHqOXvuIkX2f7IqQG7yDTclEszqhq78K3KZBy4YsEtWkXS74w9HBvOFR5yzYIyV9LVJsSSTgJwgq/4p+r9cJLi2qmQlvnViWUVfFqhKr6HgJwSFtjiu9GeHFxncKMm3Qs77jllHR57S8BeEdHnbg1yen0/GD+Ax/q/qrr3ZK9sf64ymv/J6s0hwn/iPPS95iA5azqLWU7Yv3l6i1l/1AtliKA/pIOhOsGUMvgOa4m+w1rGxYf0iSCX7kJ2lsHz9V4S9ri1ZiarUs+B7OOq1jGNZ1ertd3JbSLUXzSwcqTcZ1OzHpSrsBhq704CUTrAlAjpDjD1Vz2repe2zcDcQZVN5XOI+Aa3WxvUS7yBPwfM53v8pYtiDavpea82Vyy2+UtvYqZzgfwNHS8wzHy4kmL3lH0KIx3JuAzBj4H6HOw3MoCbwhf1wuR1IrgfsnVWs+WwMNxX1UY90tCGfVbYAiKYinVUjsJ6IFG+5jQrq9O0iKh9RtgRazJQyPhkDXjidxm/2YCJmmw0QHg6PZLu9LFGaploOMsCficgc8AfE6gZmb5ht+ivqi3mA4MxFVePA7g8SUFHqtCuIpB5wUD4MdBO3ysk4APGPwuCK+onPFsPBdrAKhuLn0VwKvOM+pGw+e/lJnmCfBsBr6E0KzffaZxsD4c+B0CvdYl+CVPY9m+/weJ3V2pB28knAAAACV0RVh0ZGF0ZTpjcmVhdGUAMjAyMi0wMi0wMVQwMTowOToyMyswMDowMKpe170AAAAldEVYdGRhdGU6bW9kaWZ5ADIwMjItMDItMDFUMDE6MDk6MjMrMDA6MDDbA28BAAAAAElFTkSuQmCC;labelBorderColor=default;" parent="1" vertex="1">
                    <mxGeometry x="1061" y="-3045.75" width="61" height="61" as="geometry"/>
                </mxCell>
            </root>
        </mxGraphModel>
    </diagram>
</mxfile>